<svg width="482" height="512" viewBox="0 0 482 512" fill="none" xmlns="http://www.w3.org/2000/svg">
<path d="M438.519 255.992C456.957 234.702 469.736 214.431 476.482 195.696C484.047 174.701 483.626 156.81 475.225 142.519C472.363 137.654 468.593 133.315 464.004 129.588V129.533L463.947 129.501C462.949 123.736 461.012 118.362 458.157 113.489C449.757 99.1977 434.189 89.8902 411.884 85.8296C391.986 82.2069 367.718 82.9315 339.72 87.9714C330.16 61.6413 318.671 40.6377 305.519 25.526C290.786 8.58296 274.797 0 257.988 0C252.28 0 246.572 1.04301 240.985 3.07331L240.929 3.04942L240.872 3.07331C235.277 1.04301 229.561 0 223.861 0C207.052 0 191.063 8.58296 176.33 25.518C163.178 40.6297 151.689 61.6333 142.129 87.9634C114.123 82.9235 89.8552 82.199 69.9656 85.8217C47.6598 89.8822 32.0919 99.1897 23.6917 113.481C20.8214 118.362 18.8835 123.768 17.8943 129.549C13.2888 133.283 9.50221 137.63 6.63188 142.519C-1.76829 156.81 -2.18992 174.701 5.3751 195.696C12.1212 214.431 24.8998 234.702 43.338 255.992C24.8998 277.282 12.1212 297.561 5.3751 316.296C-2.18992 337.291 -1.76829 355.19 6.63188 369.481C9.4941 374.338 13.2645 378.677 17.8537 382.412V382.475L17.9105 382.507C18.9078 388.272 20.8457 393.646 23.6998 398.511C32.1 412.802 47.6679 422.11 69.9737 426.178C78.2928 427.691 87.3741 428.455 97.1689 428.455C110.807 428.455 125.848 426.967 142.137 424.037C151.697 450.367 163.186 471.37 176.338 486.482C191.079 503.417 207.068 512 223.869 512C229.577 512 235.285 510.957 240.88 508.927L240.937 508.951L240.993 508.927C246.58 510.957 252.296 512 257.997 512C274.805 512 290.795 503.417 305.527 486.482C318.679 471.378 330.168 450.367 339.728 424.037C356.018 426.967 371.058 428.455 384.696 428.455C394.491 428.455 403.573 427.699 411.892 426.178C434.198 422.11 449.765 412.802 458.166 398.519C461.036 393.646 462.974 388.248 463.971 382.459C468.577 378.717 472.363 374.37 475.233 369.497C483.634 355.206 484.055 337.307 476.49 316.312C469.744 297.577 456.966 277.298 438.527 256.008L438.519 255.992ZM464.636 142.901C465.649 144.199 466.566 145.552 467.393 146.953C481.542 171.03 467.604 209.709 429.162 253.078C422.424 260.682 414.965 268.373 406.994 275.937C404.108 278.676 401.156 281.407 398.124 284.129C396.105 285.945 394.053 287.752 391.978 289.552C390.94 290.451 389.894 291.351 388.832 292.251C378.283 301.232 366.988 310.069 355.077 318.652L354.98 318.724C353.536 319.767 352.077 320.802 350.609 321.837C348.307 323.461 345.971 325.078 343.628 326.686C341.601 328.071 339.566 329.457 337.506 330.826C335.739 332.005 333.955 333.183 332.163 334.353C327.452 337.427 322.668 340.452 317.836 343.414C313.611 346.002 309.314 348.565 305.008 351.065C302.965 352.252 300.93 353.43 298.887 354.585C292.457 358.231 285.954 361.766 279.548 365.118C277.87 365.994 276.192 366.862 274.505 367.722C262.724 373.741 250.837 379.338 239.096 384.41C236.704 385.445 234.32 386.448 231.945 387.436C231.75 387.515 231.555 387.595 231.369 387.674C229.091 388.614 226.82 389.538 224.558 390.445C224.266 390.565 223.974 390.676 223.682 390.795C221.477 391.671 219.271 392.531 217.066 393.367C216.725 393.495 216.393 393.622 216.052 393.749C213.871 394.577 211.698 395.382 209.533 396.17C209.193 396.297 208.852 396.417 208.512 396.544C206.339 397.332 204.166 398.105 202.001 398.853C201.693 398.956 201.385 399.068 201.068 399.171C198.871 399.928 196.674 400.668 194.484 401.385C194.249 401.464 194.014 401.536 193.779 401.616C191.517 402.356 189.255 403.081 187 403.773C186.911 403.797 186.822 403.829 186.741 403.853C184.503 404.546 182.281 405.215 180.068 405.859C179.938 405.899 179.817 405.931 179.687 405.971C179.622 405.748 179.549 405.525 179.484 405.31C179.062 403.933 178.641 402.539 178.227 401.138C178.089 400.668 177.952 400.207 177.814 399.737C177.335 398.097 176.865 396.44 176.403 394.776C176.346 394.577 176.298 394.378 176.241 394.179C175.827 392.659 175.414 391.13 175.016 389.585C174.895 389.123 174.773 388.654 174.652 388.192C174.206 386.464 173.768 384.728 173.346 382.985C173.362 382.985 173.387 382.969 173.411 382.969C175.503 382.316 177.611 381.639 179.727 380.947C180.044 380.843 180.36 380.74 180.676 380.636C182.703 379.967 184.746 379.275 186.798 378.574C187.211 378.431 187.625 378.287 188.038 378.144C190.082 377.435 192.141 376.711 194.201 375.962C194.549 375.835 194.89 375.708 195.238 375.588C196.771 375.031 198.303 374.466 199.836 373.892H199.844L201.766 373.168C214.698 368.271 227.85 362.714 240.88 356.647H240.888L242.834 355.739C257.397 348.9 272.024 341.328 286.303 333.231C297.857 326.678 309.184 319.783 320.09 312.673V312.777L327.882 307.522L329.666 306.319V306.303C332.204 304.584 334.717 302.856 337.206 301.104C343.677 296.566 349.985 291.94 356.099 287.274V287.394L363.793 281.287C363.793 281.287 363.81 281.279 363.818 281.271L365.399 280.013C365.999 279.528 366.599 279.05 367.191 278.572C369.137 277.004 371.058 275.427 372.964 273.843C378.777 269.01 384.405 264.121 389.764 259.225C389.764 259.225 389.772 259.225 389.78 259.217L393.332 255.976L393.316 255.96C393.551 255.737 393.794 255.514 394.029 255.291C396.697 252.791 399.316 250.275 401.862 247.767C401.935 247.696 402.008 247.624 402.081 247.552C406.037 243.643 409.832 239.734 413.448 235.84L416.4 232.656L416.384 232.64C416.521 232.488 416.659 232.337 416.797 232.194C416.805 232.186 416.813 232.17 416.821 232.162C416.951 232.019 417.081 231.867 417.211 231.724C417.227 231.708 417.243 231.692 417.259 231.668C418.208 230.617 419.149 229.566 420.065 228.515C420.138 228.428 420.211 228.348 420.284 228.261C434.7 211.803 445.825 195.784 453.398 180.561C460.168 166.954 463.914 154.334 464.612 142.885L464.636 142.901ZM292.546 368.295C292.708 368.208 292.87 368.12 293.024 368.032C294.176 367.403 295.335 366.766 296.487 366.137C297.07 365.819 297.654 365.5 298.23 365.174C299.957 364.219 301.676 363.255 303.395 362.276C305.106 361.305 306.808 360.325 308.519 359.338C309.062 359.019 309.606 358.701 310.149 358.382C311.308 357.706 312.468 357.029 313.627 356.344C313.79 356.249 313.96 356.153 314.122 356.05C314.073 356.328 314.017 356.615 313.968 356.894C313.717 358.279 313.457 359.664 313.198 361.034C313.149 361.273 313.109 361.504 313.06 361.742C312.979 362.156 312.898 362.563 312.817 362.977C312.565 364.25 312.314 365.516 312.063 366.774C311.949 367.348 311.827 367.921 311.714 368.486C311.446 369.792 311.163 371.09 310.887 372.388C310.846 372.563 310.814 372.746 310.773 372.921C310.692 373.279 310.619 373.638 310.538 373.996C310.514 374.099 310.49 374.203 310.465 374.306C304.587 372.467 298.595 370.453 292.53 368.287L292.546 368.295ZM308.462 382.993C308.39 383.295 308.317 383.598 308.235 383.9C308.017 384.808 307.789 385.708 307.562 386.608C307.457 387.03 307.344 387.451 307.238 387.873C307.019 388.709 306.808 389.545 306.589 390.381C306.476 390.819 306.362 391.249 306.241 391.687C306.022 392.523 305.795 393.351 305.568 394.179C305.454 394.585 305.349 394.991 305.235 395.397C304.984 396.289 304.741 397.173 304.481 398.065C304.384 398.391 304.295 398.726 304.198 399.052C303.525 401.393 302.835 403.702 302.122 405.987C285.881 401.257 269.129 395.35 252.142 388.375C252.248 388.327 252.361 388.272 252.467 388.224C254.761 387.181 257.056 386.122 259.359 385.047C259.918 384.784 260.478 384.521 261.029 384.259C263.137 383.264 265.245 382.26 267.354 381.233C267.629 381.098 267.897 380.97 268.172 380.843C270.475 379.72 272.778 378.574 275.081 377.419C275.656 377.133 276.224 376.838 276.8 376.552C278.527 375.676 280.246 374.8 281.965 373.908C290.932 377.26 299.819 380.318 308.454 383.009L308.462 382.993ZM281.973 138.092C280.246 137.192 278.51 136.308 276.775 135.424C276.216 135.146 275.664 134.859 275.105 134.581C272.786 133.41 270.467 132.256 268.14 131.125C267.905 131.014 267.67 130.902 267.435 130.783C266.389 130.273 265.335 129.764 264.289 129.262C263.186 128.736 262.083 128.211 260.98 127.693C260.453 127.447 259.918 127.192 259.391 126.945C257.072 125.854 254.753 124.787 252.434 123.736C252.337 123.697 252.248 123.649 252.15 123.609C269.105 116.642 285.857 110.743 302.13 105.997C302.47 107.096 302.803 108.195 303.135 109.309C303.176 109.445 303.216 109.58 303.257 109.707C303.573 110.758 303.881 111.817 304.189 112.876C304.311 113.298 304.433 113.72 304.546 114.142C304.773 114.923 304.992 115.711 305.211 116.499C305.349 116.985 305.479 117.478 305.616 117.964C305.819 118.704 306.022 119.445 306.216 120.185C306.354 120.695 306.484 121.197 306.622 121.706C306.816 122.455 307.011 123.203 307.206 123.951C307.335 124.453 307.465 124.947 307.587 125.448C307.789 126.26 307.992 127.08 308.195 127.9C308.284 128.259 308.373 128.617 308.462 128.975C299.738 131.69 290.851 134.748 281.973 138.076V138.092ZM310.481 137.678C310.506 137.781 310.53 137.885 310.554 137.988C310.619 138.283 310.684 138.577 310.749 138.864C310.814 139.151 310.871 139.437 310.935 139.724C311.203 140.958 311.471 142.2 311.73 143.45C311.852 144.047 311.981 144.644 312.103 145.25C312.354 146.492 312.606 147.742 312.849 148.992C312.938 149.438 313.027 149.883 313.109 150.329C313.141 150.504 313.173 150.68 313.214 150.863C313.49 152.304 313.757 153.745 314.025 155.194C314.073 155.441 314.114 155.688 314.163 155.934C314 155.839 313.846 155.751 313.684 155.656C312.525 154.971 311.365 154.294 310.206 153.618C309.654 153.291 309.095 152.965 308.544 152.646C307.084 151.802 305.633 150.966 304.173 150.138C303.93 149.995 303.679 149.852 303.435 149.716C301.716 148.745 299.997 147.781 298.27 146.818C297.662 146.484 297.054 146.149 296.438 145.815C295.327 145.202 294.216 144.589 293.105 143.984C292.927 143.888 292.749 143.785 292.57 143.689C298.587 141.539 304.587 139.533 310.506 137.678H310.481ZM279.556 146.874C281.575 147.933 283.602 149.008 285.638 150.098C290.065 152.471 294.5 154.915 298.895 157.407C300.411 158.267 301.927 159.135 303.443 160.011C303.962 160.306 304.473 160.616 304.992 160.911C305.998 161.492 306.995 162.081 308 162.67C308.592 163.021 309.184 163.371 309.776 163.721C310.692 164.271 311.617 164.812 312.533 165.361C313.157 165.736 313.781 166.11 314.406 166.492C314.965 166.834 315.533 167.177 316.092 167.511C316.141 167.822 316.19 168.14 316.238 168.451C316.555 170.481 316.855 172.527 317.146 174.589C317.195 174.908 317.236 175.226 317.284 175.545C317.609 177.87 317.917 180.21 318.217 182.559C318.282 183.101 318.346 183.642 318.419 184.183C318.671 186.23 318.914 188.292 319.141 190.354C319.182 190.736 319.23 191.126 319.271 191.508C319.53 193.881 319.774 196.262 320.009 198.65C320.025 198.849 320.049 199.048 320.065 199.247C319.83 199.088 319.587 198.937 319.344 198.786C316.968 197.241 314.576 195.704 312.16 194.184C311.787 193.953 311.414 193.714 311.041 193.483C308.811 192.082 306.565 190.696 304.311 189.319C303.889 189.056 303.468 188.801 303.038 188.539C300.589 187.05 298.124 185.577 295.643 184.12C295.108 183.809 294.581 183.499 294.046 183.18C293.268 182.726 292.497 182.265 291.711 181.811C289.935 180.776 288.143 179.757 286.359 178.737C284.575 177.726 282.784 176.723 280.992 175.728C277.7 173.905 274.4 172.113 271.083 170.353C265.351 167.304 259.586 164.342 253.821 161.5C253.732 161.452 253.642 161.412 253.545 161.364C250.788 160.003 248.031 158.673 245.275 157.368C244.48 156.993 243.685 156.611 242.891 156.237L240.945 155.321H240.937C238.172 154.039 235.399 152.766 232.626 151.524C230.907 150.759 229.196 150.003 227.477 149.254C218.898 145.52 210.312 142.025 201.822 138.808C201.798 138.808 201.782 138.792 201.758 138.784L199.893 138.076H199.885C198.336 137.503 196.787 136.929 195.238 136.372C194.938 136.261 194.638 136.149 194.338 136.046C192.247 135.289 190.155 134.549 188.071 133.824C187.706 133.697 187.341 133.569 186.976 133.45C184.892 132.733 182.809 132.033 180.741 131.348C180.449 131.252 180.157 131.157 179.865 131.061C179.038 130.791 178.203 130.512 177.376 130.249C176.071 129.827 174.765 129.421 173.468 129.015C173.443 129.015 173.419 128.999 173.403 128.991C173.833 127.216 174.279 125.456 174.733 123.713C174.846 123.283 174.952 122.861 175.065 122.431C175.487 120.814 175.916 119.214 176.346 117.622C176.387 117.486 176.419 117.351 176.46 117.208C176.93 115.504 177.408 113.824 177.895 112.144C178.017 111.73 178.138 111.308 178.26 110.894C178.69 109.421 179.135 107.964 179.581 106.515C179.638 106.348 179.687 106.172 179.735 105.997C179.833 106.029 179.93 106.053 180.027 106.085C182.29 106.746 184.568 107.43 186.846 108.139C186.903 108.155 186.96 108.171 187.017 108.187C189.279 108.887 191.549 109.612 193.836 110.36C194.055 110.432 194.282 110.504 194.501 110.575C196.69 111.292 198.887 112.04 201.093 112.797C201.401 112.9 201.709 113.004 202.009 113.115C204.174 113.864 206.347 114.636 208.52 115.424C208.86 115.544 209.201 115.671 209.542 115.79C211.715 116.579 213.888 117.391 216.069 118.219C216.401 118.346 216.734 118.474 217.074 118.601C219.28 119.445 221.485 120.305 223.699 121.181C223.99 121.292 224.274 121.411 224.566 121.531C226.836 122.439 229.115 123.362 231.401 124.31C231.588 124.389 231.766 124.461 231.953 124.541C234.345 125.536 236.737 126.547 239.137 127.582C252.523 133.346 266.129 139.835 279.581 146.866L279.556 146.874ZM177.749 139.74C177.903 139.788 178.057 139.843 178.211 139.891C180.214 140.552 182.233 141.237 184.252 141.937C184.625 142.065 184.998 142.192 185.371 142.327C186.676 142.781 187.982 143.251 189.287 143.713C185.663 145.679 182.03 147.686 178.43 149.724C174.806 151.778 171.23 153.856 167.711 155.942C167.954 154.597 168.189 153.251 168.449 151.914C168.522 151.547 168.587 151.181 168.66 150.807C169.057 148.737 169.462 146.683 169.876 144.644C169.916 144.461 169.949 144.286 169.989 144.103C170.395 142.152 170.808 140.218 171.23 138.299C171.279 138.092 171.319 137.893 171.368 137.686C171.514 137.733 171.66 137.781 171.806 137.821C173.784 138.442 175.762 139.079 177.757 139.732L177.749 139.74ZM182.954 157.407C188.76 154.119 194.638 150.902 200.46 147.837C201.02 148.052 201.579 148.267 202.139 148.482C202.876 148.769 203.622 149.055 204.36 149.35C205.268 149.708 206.177 150.066 207.093 150.433C207.823 150.727 208.552 151.014 209.29 151.309C210.214 151.683 211.147 152.065 212.071 152.439C212.793 152.734 213.506 153.028 214.228 153.323C215.177 153.713 216.125 154.111 217.074 154.517C217.771 154.812 218.477 155.106 219.174 155.401C220.147 155.815 221.12 156.237 222.093 156.659C222.774 156.954 223.447 157.24 224.128 157.535C225.142 157.973 226.147 158.427 227.161 158.872C227.801 159.159 228.442 159.438 229.082 159.724C229.536 159.923 229.991 160.138 230.445 160.337C218.712 166.062 206.996 172.233 195.498 178.753C183.992 185.274 172.697 192.153 161.792 199.263C161.841 198.794 161.881 198.316 161.922 197.846C161.995 197.066 162.084 196.293 162.157 195.521C162.254 194.534 162.359 193.539 162.465 192.551C162.554 191.739 162.643 190.935 162.732 190.131C162.838 189.183 162.943 188.236 163.057 187.289C163.154 186.468 163.251 185.648 163.357 184.828C163.47 183.897 163.584 182.965 163.705 182.034C163.811 181.229 163.916 180.417 164.022 179.613C164.143 178.674 164.273 177.734 164.395 176.803C164.5 176.014 164.614 175.234 164.727 174.446C164.865 173.49 164.995 172.543 165.141 171.596C165.254 170.847 165.368 170.099 165.481 169.35C165.57 168.737 165.668 168.132 165.765 167.527C171.311 164.143 177.084 160.751 182.954 157.423V157.407ZM200.022 186.437C213.466 178.817 227.209 171.667 240.912 165.17C241.521 165.457 242.129 165.751 242.745 166.038C243.556 166.428 244.367 166.818 245.185 167.209C246.142 167.67 247.099 168.14 248.064 168.61C248.859 169 249.653 169.39 250.448 169.78C251.429 170.266 252.41 170.76 253.391 171.245C254.161 171.635 254.94 172.018 255.71 172.408C256.715 172.917 257.713 173.435 258.718 173.944C259.472 174.326 260.218 174.717 260.972 175.099C262.002 175.632 263.024 176.174 264.053 176.715C264.775 177.097 265.497 177.471 266.218 177.854C267.289 178.419 268.351 178.992 269.421 179.573C270.094 179.94 270.775 180.298 271.448 180.664C272.632 181.309 273.816 181.962 275 182.607C275.551 182.909 276.102 183.212 276.654 183.515C278.389 184.478 280.116 185.441 281.835 186.421C283.562 187.4 285.289 188.387 287.008 189.39C287.519 189.685 288.021 189.988 288.524 190.282C289.732 190.983 290.94 191.691 292.132 192.4C292.765 192.774 293.397 193.156 294.038 193.539C295.1 194.176 296.162 194.805 297.224 195.449C297.922 195.871 298.619 196.301 299.324 196.731C300.306 197.329 301.287 197.926 302.268 198.531C303.014 198.993 303.752 199.454 304.498 199.916C305.422 200.489 306.346 201.063 307.262 201.644C308.033 202.13 308.803 202.623 309.573 203.109C310.449 203.666 311.325 204.224 312.2 204.789C312.995 205.298 313.781 205.816 314.576 206.326C315.411 206.867 316.246 207.408 317.082 207.958C317.892 208.491 318.695 209.025 319.498 209.558C320.017 209.9 320.536 210.251 321.055 210.593C321.103 211.206 321.144 211.819 321.192 212.424C321.257 213.372 321.33 214.327 321.395 215.283C321.46 216.246 321.525 217.217 321.582 218.189C321.638 219.128 321.703 220.076 321.752 221.023C321.809 222.011 321.857 223.006 321.914 224.001C321.963 224.933 322.011 225.864 322.06 226.796C322.109 227.815 322.149 228.842 322.198 229.861C322.238 230.769 322.279 231.676 322.311 232.592C322.352 233.659 322.384 234.734 322.425 235.809C322.457 236.676 322.482 237.544 322.514 238.412C322.547 239.551 322.571 240.689 322.595 241.828C322.611 242.64 322.636 243.444 322.652 244.256C322.676 245.546 322.692 246.844 322.709 248.142C322.717 248.802 322.733 249.455 322.733 250.116C322.749 252.075 322.765 254.033 322.765 256C322.765 257.967 322.757 259.925 322.733 261.884C322.733 262.545 322.717 263.206 322.709 263.866C322.692 265.156 322.676 266.454 322.652 267.744C322.636 268.556 322.611 269.368 322.595 270.18C322.571 271.319 322.547 272.457 322.514 273.596C322.49 274.472 322.457 275.34 322.425 276.207C322.392 277.274 322.352 278.349 322.311 279.416C322.279 280.332 322.238 281.239 322.198 282.147C322.157 283.166 322.109 284.193 322.06 285.212C322.02 286.144 321.963 287.075 321.914 288.007C321.865 289.002 321.809 289.997 321.752 290.985C321.695 291.924 321.638 292.864 321.582 293.803C321.517 294.775 321.46 295.754 321.395 296.725C321.33 297.673 321.265 298.62 321.192 299.56C321.152 300.173 321.103 300.794 321.055 301.407C320.503 301.773 319.944 302.147 319.392 302.514C318.638 303.015 317.892 303.509 317.138 304.01C316.263 304.584 315.387 305.157 314.511 305.722C313.757 306.216 313.003 306.702 312.249 307.187C311.357 307.761 310.457 308.334 309.557 308.907C308.803 309.385 308.049 309.87 307.295 310.34C306.379 310.921 305.454 311.495 304.538 312.068C303.792 312.53 303.046 312.999 302.292 313.461C301.343 314.042 300.395 314.624 299.438 315.205C298.708 315.651 297.978 316.097 297.241 316.543C296.243 317.148 295.23 317.745 294.224 318.35C293.535 318.764 292.846 319.178 292.149 319.584C291.013 320.253 289.878 320.914 288.743 321.582C288.167 321.917 287.6 322.259 287.024 322.586C285.305 323.581 283.586 324.568 281.859 325.547C280.132 326.527 278.405 327.498 276.67 328.454C276.143 328.748 275.616 329.035 275.081 329.321C273.873 329.982 272.664 330.651 271.456 331.304C270.808 331.654 270.159 332.005 269.502 332.355C268.408 332.944 267.321 333.533 266.226 334.115C265.513 334.497 264.799 334.863 264.086 335.245C263.056 335.787 262.026 336.328 260.997 336.861C260.234 337.259 259.472 337.65 258.71 338.04C257.721 338.549 256.74 339.051 255.751 339.553C254.956 339.959 254.161 340.357 253.359 340.755C252.783 341.041 252.207 341.328 251.632 341.615C251.25 341.806 250.869 341.997 250.496 342.18C249.686 342.586 248.867 342.976 248.056 343.382C247.115 343.844 246.167 344.306 245.226 344.76C244.407 345.158 243.596 345.54 242.777 345.93C242.169 346.225 241.561 346.511 240.945 346.798C227.242 340.301 213.49 333.151 200.055 325.532C186.595 317.904 173.427 309.783 160.868 301.391C160.819 300.706 160.762 300.022 160.713 299.345C160.649 298.501 160.592 297.649 160.535 296.797C160.462 295.722 160.397 294.647 160.332 293.572C160.284 292.728 160.227 291.884 160.178 291.04C160.113 289.95 160.057 288.859 160 287.768C159.959 286.932 159.911 286.088 159.87 285.252C159.813 284.145 159.773 283.031 159.724 281.916C159.692 281.088 159.651 280.26 159.619 279.432C159.578 278.285 159.538 277.147 159.497 276C159.473 275.196 159.44 274.4 159.416 273.596C159.384 272.402 159.359 271.199 159.327 270.005C159.311 269.249 159.286 268.492 159.27 267.736C159.246 266.414 159.23 265.1 159.213 263.779C159.213 263.142 159.189 262.505 159.189 261.86C159.173 259.901 159.157 257.943 159.157 255.976C159.157 254.01 159.165 252.051 159.189 250.092C159.189 249.455 159.205 248.818 159.213 248.181C159.23 246.86 159.246 245.538 159.27 244.216C159.286 243.468 159.303 242.712 159.319 241.963C159.343 240.761 159.376 239.551 159.408 238.348C159.432 237.56 159.457 236.772 159.489 235.984C159.53 234.821 159.562 233.659 159.611 232.504C159.643 231.692 159.676 230.888 159.716 230.076C159.765 228.945 159.813 227.807 159.87 226.676C159.911 225.864 159.951 225.052 160 224.232C160.057 223.109 160.113 221.987 160.178 220.872C160.227 220.06 160.276 219.248 160.324 218.436C160.397 217.321 160.462 216.214 160.535 215.108C160.592 214.295 160.649 213.491 160.705 212.679C160.754 211.971 160.811 211.262 160.868 210.553C173.435 202.153 186.603 194.04 200.055 186.413L200.022 186.437ZM195.506 333.247C207.004 339.767 218.72 345.938 230.453 351.663C229.999 351.87 229.536 352.077 229.082 352.284C228.466 352.554 227.858 352.825 227.242 353.096C226.204 353.558 225.166 354.019 224.136 354.465C223.463 354.76 222.799 355.046 222.126 355.333C221.144 355.755 220.163 356.177 219.182 356.599C218.477 356.894 217.779 357.188 217.074 357.483C216.125 357.881 215.185 358.279 214.236 358.669C213.515 358.972 212.785 359.266 212.063 359.561C211.139 359.935 210.223 360.317 209.298 360.683C208.56 360.978 207.823 361.273 207.085 361.567C206.185 361.926 205.277 362.284 204.377 362.642C203.622 362.937 202.868 363.231 202.122 363.518C201.571 363.733 201.02 363.94 200.468 364.155C194.655 361.097 188.776 357.881 182.963 354.585C177.092 351.257 171.319 347.865 165.773 344.481C165.684 343.908 165.595 343.326 165.505 342.745C165.384 341.949 165.262 341.161 165.149 340.357C165.011 339.441 164.881 338.525 164.751 337.61C164.638 336.798 164.516 335.978 164.411 335.165C164.289 334.258 164.168 333.342 164.046 332.427C163.941 331.599 163.827 330.778 163.722 329.95C163.608 329.035 163.495 328.111 163.381 327.196C163.284 326.368 163.178 325.54 163.081 324.704C162.968 323.772 162.87 322.832 162.765 321.893C162.676 321.073 162.578 320.253 162.489 319.433C162.384 318.453 162.286 317.474 162.189 316.495C162.108 315.714 162.027 314.926 161.946 314.146C161.897 313.676 161.857 313.199 161.816 312.729C172.714 319.831 184.017 326.71 195.522 333.239L195.506 333.247ZM178.438 362.284C182.038 364.322 185.671 366.328 189.287 368.295C187.965 368.765 186.652 369.243 185.338 369.696C184.949 369.832 184.568 369.959 184.179 370.094C182.176 370.787 180.173 371.464 178.187 372.117C178.017 372.173 177.838 372.228 177.668 372.284C175.738 372.921 173.825 373.534 171.927 374.131C171.741 374.187 171.554 374.251 171.368 374.306C171.319 374.099 171.279 373.9 171.23 373.693C170.808 371.79 170.403 369.872 169.997 367.937C169.957 367.738 169.916 367.539 169.868 367.332C169.454 365.301 169.049 363.263 168.66 361.209C168.587 360.827 168.514 360.453 168.441 360.07C168.189 358.741 167.954 357.395 167.711 356.058C171.23 358.144 174.814 360.222 178.438 362.276V362.284ZM365.869 250.156C365.869 249.527 365.853 248.89 365.845 248.261C365.829 246.931 365.812 245.602 365.788 244.28C365.788 244.105 365.788 243.93 365.788 243.763C370.693 247.815 375.469 251.9 380.059 256C379.969 256.08 379.888 256.151 379.799 256.231C379.58 256.43 379.361 256.621 379.134 256.82C378.923 257.003 378.713 257.194 378.502 257.377C377.537 258.237 376.564 259.089 375.575 259.941C375.104 260.347 374.634 260.753 374.164 261.159C373.207 261.987 372.242 262.807 371.277 263.628C370.912 263.938 370.548 264.249 370.183 264.551C370.037 264.671 369.891 264.798 369.745 264.917C368.634 265.849 367.523 266.78 366.404 267.712C366.193 267.887 365.983 268.062 365.772 268.237C365.772 268.062 365.772 267.895 365.772 267.72C365.796 266.398 365.812 265.077 365.829 263.747C365.829 263.11 365.845 262.481 365.853 261.844C365.869 259.893 365.877 257.943 365.877 255.992C365.877 254.041 365.869 252.091 365.853 250.14L365.869 250.156ZM365.431 231.971C365.358 230.06 365.277 228.149 365.18 226.238C365.147 225.617 365.123 224.988 365.091 224.367C364.961 221.819 364.815 219.28 364.653 216.748C364.637 216.469 364.612 216.19 364.596 215.912C364.442 213.579 364.28 211.262 364.101 208.945C364.053 208.356 364.012 207.767 363.964 207.177C363.761 204.669 363.55 202.169 363.315 199.677C363.307 199.574 363.299 199.462 363.291 199.359C377.91 210.299 391.499 221.596 403.816 233.054C403.021 233.89 402.227 234.718 401.416 235.554C401.302 235.665 401.197 235.777 401.083 235.896C400.321 236.676 399.559 237.457 398.781 238.245C398.481 238.547 398.181 238.85 397.881 239.145C397.289 239.742 396.689 240.339 396.089 240.936C395.74 241.278 395.399 241.621 395.051 241.963C394.483 242.528 393.907 243.086 393.332 243.651C392.975 244.001 392.61 244.352 392.253 244.702C391.67 245.267 391.078 245.833 390.486 246.398C390.137 246.732 389.78 247.067 389.424 247.409C388.775 248.022 388.126 248.627 387.478 249.24C387.226 249.479 386.967 249.718 386.715 249.957C379.969 243.914 372.834 237.887 365.447 231.979L365.431 231.971ZM455.53 134.652C455.563 135.034 455.587 135.425 455.611 135.807C455.636 136.229 455.668 136.651 455.684 137.073C455.701 137.463 455.701 137.869 455.709 138.267C455.709 138.697 455.725 139.119 455.717 139.549C455.717 139.955 455.701 140.361 455.684 140.767C455.668 141.197 455.66 141.635 455.636 142.065C455.611 142.479 455.579 142.901 455.555 143.323C455.522 143.761 455.49 144.199 455.449 144.636C455.409 145.066 455.36 145.496 455.303 145.926C455.255 146.372 455.198 146.81 455.133 147.256C455.076 147.694 455.003 148.132 454.93 148.57C454.857 149.016 454.784 149.469 454.703 149.915C454.622 150.361 454.533 150.807 454.444 151.261C454.355 151.715 454.265 152.168 454.16 152.622C454.063 153.076 453.957 153.53 453.844 153.992C453.738 154.454 453.625 154.915 453.503 155.377C453.382 155.839 453.26 156.301 453.13 156.77C453.001 157.24 452.871 157.702 452.733 158.172C452.595 158.641 452.449 159.111 452.303 159.589C452.157 160.059 452.011 160.536 451.849 161.006C451.695 161.484 451.533 161.962 451.363 162.447C451.201 162.925 451.03 163.403 450.86 163.88C450.682 164.366 450.503 164.852 450.317 165.345C450.13 165.831 449.944 166.317 449.757 166.802C449.563 167.296 449.368 167.79 449.165 168.283C448.963 168.769 448.76 169.263 448.549 169.756C448.338 170.258 448.119 170.752 447.9 171.253C447.779 171.532 447.649 171.818 447.519 172.097C447.422 172.312 447.325 172.527 447.227 172.742C447 173.244 446.765 173.753 446.522 174.263C446.287 174.764 446.036 175.274 445.792 175.776C445.541 176.285 445.29 176.795 445.038 177.304C444.779 177.814 444.519 178.323 444.252 178.841C443.984 179.35 443.717 179.868 443.441 180.386C443.165 180.903 442.881 181.429 442.59 181.946C442.306 182.464 442.022 182.973 441.738 183.491C441.438 184.016 441.138 184.55 440.83 185.083C440.53 185.601 440.23 186.118 439.93 186.636C439.614 187.169 439.289 187.71 438.965 188.244C438.649 188.761 438.333 189.287 438.008 189.804C437.676 190.346 437.327 190.895 436.979 191.437C436.646 191.962 436.322 192.48 435.981 193.005C435.625 193.555 435.26 194.112 434.887 194.669C434.538 195.195 434.197 195.712 433.849 196.238C433.468 196.803 433.079 197.368 432.689 197.934C432.333 198.451 431.976 198.969 431.611 199.494C431.206 200.067 430.792 200.649 430.378 201.222C430.005 201.739 429.641 202.257 429.268 202.774C428.838 203.364 428.4 203.953 427.962 204.542C427.581 205.06 427.208 205.569 426.819 206.087C426.365 206.692 425.895 207.297 425.432 207.902C425.043 208.412 424.662 208.913 424.265 209.423C423.786 210.044 423.292 210.665 422.797 211.286C422.4 211.787 422.011 212.281 421.605 212.783C421.094 213.42 420.567 214.057 420.04 214.693C419.643 215.179 419.246 215.673 418.84 216.158C418.289 216.827 417.721 217.496 417.154 218.157C416.765 218.619 416.375 219.088 415.978 219.55C415.362 220.267 414.738 220.991 414.105 221.708C413.74 222.13 413.384 222.544 413.011 222.966C412.265 223.81 411.502 224.662 410.74 225.506C410.473 225.8 410.213 226.103 409.946 226.398C409.921 226.429 409.889 226.453 409.865 226.485C395.464 213.101 379.386 199.948 361.985 187.32C361.734 185.147 361.482 182.973 361.207 180.823C361.085 179.876 360.955 178.944 360.826 177.997C360.582 176.15 360.339 174.303 360.072 172.471C359.909 171.349 359.739 170.242 359.569 169.135C359.326 167.495 359.074 165.855 358.815 164.223C358.628 163.044 358.426 161.882 358.231 160.712C357.972 159.159 357.712 157.614 357.445 156.078C357.234 154.883 357.015 153.697 356.796 152.511C356.52 151.014 356.245 149.517 355.953 148.036C355.726 146.842 355.482 145.664 355.247 144.477C354.955 143.012 354.655 141.555 354.347 140.106C354.096 138.928 353.844 137.757 353.585 136.587C353.269 135.154 352.944 133.721 352.62 132.295C352.353 131.141 352.085 129.994 351.817 128.848C351.671 128.243 351.534 127.622 351.388 127.025C398.351 117.542 435.073 120.114 455.449 134.326C455.457 134.429 455.474 134.525 455.482 134.628L455.53 134.652ZM450.341 117.932C451.168 119.341 451.898 120.814 452.53 122.335C429.251 110.926 393.299 109.5 349.231 118.434C349.158 118.155 349.085 117.884 349.004 117.614C348.777 116.77 348.55 115.918 348.315 115.082C348.185 114.62 348.055 114.158 347.925 113.696C347.707 112.908 347.488 112.128 347.261 111.348C347.131 110.886 346.993 110.424 346.863 109.962C346.628 109.15 346.393 108.346 346.15 107.534C346.028 107.128 345.906 106.722 345.793 106.324C345.452 105.201 345.112 104.086 344.771 102.98C344.747 102.908 344.723 102.828 344.706 102.757C344.342 101.586 343.969 100.424 343.596 99.2694C343.474 98.8872 343.352 98.513 343.223 98.1388C343.044 97.5814 342.858 97.0241 342.679 96.4747C397.508 86.8488 436.598 94.5957 450.333 117.948L450.341 117.932ZM257.988 8.87755C286.294 8.87755 313.449 40.0724 332.471 94.4683C335.771 103.887 338.82 114.071 341.544 124.724C342.842 129.835 344.066 135.042 345.209 140.337C348.631 156.237 351.331 172.957 353.261 190.242C354.663 202.751 355.661 215.657 356.253 228.699C356.334 230.562 356.415 232.425 356.48 234.296C356.731 241.414 356.861 248.715 356.861 256C356.861 257.736 356.853 259.479 356.836 261.215C356.836 261.812 356.82 262.401 356.812 262.999C356.796 264.137 356.788 265.276 356.763 266.414C356.755 267.123 356.739 267.823 356.723 268.532C356.699 269.551 356.682 270.578 356.658 271.597C356.642 272.338 356.618 273.07 356.593 273.803C356.577 274.432 356.553 275.053 356.536 275.674C356.261 275.889 355.985 276.104 355.709 276.319C354.128 277.561 352.531 278.795 350.917 280.029C350.617 280.26 350.325 280.491 350.025 280.714C348.161 282.131 346.279 283.548 344.374 284.958C343.904 285.308 343.425 285.658 342.947 286.009C341.309 287.211 339.663 288.413 338.009 289.607C337.652 289.862 337.296 290.125 336.939 290.38C335.001 291.773 333.039 293.15 331.076 294.528C330.898 294.655 330.72 294.775 330.541 294.902C330.558 294.615 330.574 294.321 330.59 294.034C330.76 291.255 330.922 288.461 331.052 285.658C331.076 285.228 331.093 284.79 331.109 284.352C331.231 281.749 331.328 279.145 331.417 276.526C331.433 276.048 331.449 275.562 331.466 275.085C331.555 272.258 331.62 269.416 331.668 266.573C331.676 265.96 331.685 265.355 331.693 264.742C331.733 261.828 331.758 258.906 331.758 255.984C331.758 251.916 331.717 247.855 331.636 243.794C331.458 234.773 331.085 225.808 330.517 216.963L330.598 217.018L329.868 207.767C329.868 207.719 329.868 207.679 329.86 207.631L329.698 205.649H329.69C329.439 202.631 329.171 199.63 328.879 196.644C328.109 188.873 327.193 181.19 326.122 173.642L326.228 173.705L324.695 164.111C324.695 164.111 324.679 164.032 324.679 163.992L324.379 162.105H324.371C324.014 159.939 323.657 157.782 323.276 155.64C321.784 147.216 320.098 138.96 318.233 130.99L317.146 126.34H317.122C314.811 116.929 312.241 107.813 309.444 99.1738L308.114 95.0655H308.089C308.049 94.962 308.017 94.8585 307.976 94.747C307.814 94.2693 307.652 93.7995 307.489 93.3298C307.149 92.3504 306.816 91.3711 306.476 90.4077C306.281 89.8584 306.079 89.309 305.884 88.7596C305.568 87.8758 305.243 87 304.927 86.1242C304.716 85.5669 304.514 85.0095 304.303 84.4522C303.979 83.6003 303.654 82.7484 303.33 81.9044C303.119 81.363 302.908 80.8216 302.697 80.2802C302.357 79.4123 302.008 78.5524 301.66 77.6925C301.465 77.2069 301.262 76.7132 301.068 76.2275C300.662 75.2403 300.249 74.2609 299.835 73.2896C299.689 72.9552 299.551 72.6128 299.414 72.2784C298.854 70.9806 298.287 69.6908 297.719 68.4169C297.605 68.1621 297.484 67.9073 297.37 67.6525C296.916 66.6493 296.454 65.6541 295.992 64.6668C295.789 64.2369 295.587 63.8149 295.384 63.3929C295.003 62.5887 294.614 61.7846 294.224 60.9964C293.997 60.5346 293.77 60.0807 293.543 59.6269C293.17 58.8785 292.797 58.138 292.416 57.4055C292.181 56.9517 291.946 56.4979 291.711 56.044C291.33 55.3115 290.94 54.587 290.551 53.8704C290.324 53.4485 290.097 53.0185 289.862 52.5965C289.44 51.8242 289.019 51.0678 288.589 50.3194C288.394 49.9691 288.192 49.6108 287.997 49.2684C287.421 48.2652 286.838 47.27 286.254 46.2907C286.205 46.2111 286.157 46.1235 286.108 46.0359C285.467 44.969 284.819 43.918 284.17 42.883C283.992 42.6043 283.813 42.3336 283.643 42.0549C283.173 41.3145 282.694 40.582 282.216 39.8574C281.981 39.5071 281.746 39.1568 281.511 38.8144C281.081 38.1775 280.651 37.5485 280.221 36.9274C279.97 36.5612 279.719 36.2029 279.467 35.8526C279.046 35.2554 278.616 34.6583 278.194 34.0771C277.943 33.7267 277.683 33.3844 277.432 33.042C276.986 32.4449 276.548 31.8637 276.102 31.2824C275.859 30.9719 275.624 30.6614 275.381 30.3509C274.878 29.706 274.367 29.069 273.856 28.448C273.678 28.225 273.5 28.0021 273.313 27.7792C272.616 26.9352 271.91 26.1072 271.205 25.2951C271.132 25.2154 271.059 25.1358 270.986 25.0482C270.354 24.3317 269.721 23.631 269.089 22.9463C268.862 22.6995 268.635 22.4686 268.408 22.2297C267.921 21.7122 267.435 21.2026 266.948 20.709C266.681 20.4383 266.421 20.1755 266.153 19.9128C265.699 19.459 265.237 19.0051 264.775 18.5672C264.499 18.3045 264.216 18.0338 263.94 17.779C263.478 17.349 263.024 16.9271 262.562 16.521C262.286 16.2742 262.01 16.0274 261.734 15.7885C261.248 15.3586 260.753 14.9445 260.259 14.5385C260.007 14.3315 259.764 14.1165 259.513 13.9175C258.905 13.4238 258.288 12.9461 257.68 12.4684C257.551 12.3649 257.413 12.2614 257.283 12.1579C256.537 11.5926 255.783 11.0432 255.029 10.5177C254.834 10.3824 254.632 10.247 254.429 10.1117C253.967 9.80114 253.513 9.48266 253.05 9.18011C254.705 8.96514 256.367 8.86163 258.021 8.86163L257.988 8.87755ZM229.845 19.3634C230.234 19.0688 230.623 18.7822 231.012 18.5035C231.337 18.2726 231.653 18.0417 231.977 17.8188C232.366 17.5481 232.764 17.2774 233.153 17.0226C233.477 16.8076 233.793 16.6006 234.118 16.3936C234.515 16.1388 234.912 15.9 235.31 15.6611C235.634 15.47 235.95 15.271 236.274 15.0879C236.68 14.857 237.085 14.634 237.491 14.4111C237.807 14.2359 238.131 14.0608 238.448 13.9015C238.861 13.6866 239.275 13.4875 239.696 13.2885C240.012 13.1372 240.321 12.9859 240.637 12.8346C240.734 12.7948 240.831 12.755 240.921 12.7072C241.01 12.7471 241.099 12.7869 241.188 12.8267C241.545 12.9859 241.902 13.169 242.258 13.3362C242.639 13.5194 243.029 13.7104 243.41 13.9015C243.767 14.0847 244.115 14.2837 244.472 14.4748C244.853 14.6818 245.234 14.8888 245.615 15.1117C245.964 15.3108 246.321 15.5258 246.669 15.7407C247.05 15.9716 247.431 16.2025 247.804 16.4414C248.153 16.6643 248.502 16.8952 248.85 17.1261C249.223 17.3809 249.604 17.6277 249.977 17.8905C250.326 18.1293 250.667 18.3841 251.015 18.6389C251.388 18.9096 251.761 19.1883 252.134 19.4669C252.475 19.7297 252.823 20.0004 253.164 20.2711C253.537 20.5657 253.902 20.8603 254.275 21.1628C254.615 21.4415 254.956 21.7361 255.297 22.0227C255.661 22.3332 256.034 22.6517 256.399 22.9781C256.74 23.2807 257.072 23.5832 257.413 23.8938C257.778 24.2282 258.143 24.5705 258.507 24.9129C258.84 25.2314 259.172 25.5578 259.513 25.8842C259.878 26.2425 260.234 26.6008 260.591 26.9671C260.924 27.3015 261.256 27.6518 261.589 27.9942C261.945 28.3684 262.302 28.7505 262.659 29.1407C262.983 29.499 263.316 29.8572 263.64 30.2235C263.997 30.6216 264.345 31.0197 264.702 31.4257C265.026 31.8 265.351 32.1821 265.675 32.5643C266.024 32.9783 266.372 33.4003 266.729 33.8302C267.054 34.2204 267.37 34.6185 267.694 35.0166C268.043 35.4545 268.391 35.8924 268.732 36.3383C269.048 36.7443 269.364 37.1583 269.681 37.5803C270.021 38.0341 270.37 38.5039 270.71 38.9657C271.027 39.3956 271.335 39.8176 271.651 40.2555C271.991 40.7332 272.332 41.211 272.664 41.7046C272.973 42.1505 273.281 42.5963 273.589 43.0502C273.921 43.5438 274.262 44.0534 274.594 44.555C274.902 45.0168 275.202 45.4786 275.502 45.9483C275.835 46.4658 276.167 46.9913 276.5 47.5168C276.8 47.9945 277.1 48.4722 277.4 48.9579C277.724 49.4914 278.056 50.0328 278.381 50.5822C278.681 51.0758 278.973 51.5694 279.265 52.079C279.589 52.6363 279.913 53.1937 280.229 53.759C280.521 54.2685 280.813 54.7781 281.105 55.2956C281.429 55.8689 281.746 56.4581 282.062 57.0472C282.346 57.5727 282.629 58.0903 282.913 58.6237C283.23 59.2208 283.546 59.826 283.862 60.4311C284.146 60.9725 284.421 61.5059 284.705 62.0553C285.021 62.6684 285.33 63.2974 285.638 63.9184C285.913 64.4757 286.189 65.0251 286.465 65.5824C286.773 66.2194 287.081 66.8723 287.389 67.5172C287.657 68.0825 287.924 68.6478 288.192 69.2131C288.5 69.8739 288.8 70.5507 289.108 71.2195C289.367 71.8007 289.635 72.366 289.895 72.9552C290.195 73.6399 290.495 74.3406 290.795 75.0332C291.046 75.6224 291.305 76.2036 291.557 76.7928C291.857 77.5014 292.157 78.226 292.449 78.9426C292.692 79.5397 292.943 80.1289 293.186 80.734C293.486 81.4744 293.786 82.2308 294.078 82.9872C294.314 83.5844 294.549 84.1735 294.784 84.7707C295.084 85.551 295.384 86.3471 295.684 87.1433C295.903 87.7325 296.13 88.3137 296.349 88.9109C296.657 89.7469 296.965 90.5988 297.273 91.4507C297.476 92.016 297.687 92.5734 297.881 93.1387C298.222 94.11 298.562 95.0894 298.903 96.0766C299.065 96.5384 299.227 97.0002 299.381 97.462C299.389 97.4939 299.406 97.5337 299.414 97.5655C280.408 103.107 260.77 110.209 240.945 118.696C239.137 117.924 237.329 117.16 235.529 116.411C235.318 116.324 235.107 116.236 234.896 116.149C232.601 115.201 230.315 114.27 228.028 113.354C227.712 113.227 227.396 113.099 227.08 112.98C224.85 112.096 222.628 111.228 220.415 110.384C220.058 110.249 219.693 110.106 219.336 109.97C217.139 109.134 214.942 108.322 212.752 107.518C212.396 107.391 212.039 107.255 211.682 107.128C209.477 106.332 207.287 105.551 205.09 104.795C204.774 104.683 204.466 104.58 204.149 104.469C201.912 103.696 199.674 102.94 197.444 102.207C197.233 102.136 197.022 102.072 196.812 102C194.484 101.244 192.174 100.496 189.863 99.7869C189.838 99.7869 189.814 99.771 189.798 99.763C187.503 99.0544 185.217 98.3697 182.938 97.7009C182.784 97.6531 182.63 97.6053 182.476 97.5575C182.484 97.5337 182.492 97.5098 182.5 97.4859C182.638 97.0719 182.784 96.6579 182.93 96.2438C183.279 95.2327 183.619 94.2215 183.976 93.2263C184.171 92.6689 184.373 92.1196 184.576 91.5622C184.876 90.7262 185.176 89.8822 185.484 89.0542C185.703 88.4571 185.93 87.8758 186.149 87.2867C186.441 86.5143 186.733 85.742 187.025 84.9857C187.26 84.3726 187.503 83.7754 187.738 83.1703C188.022 82.4458 188.314 81.7213 188.598 81.0047C188.841 80.3916 189.092 79.7945 189.344 79.1894C189.628 78.4967 189.919 77.804 190.203 77.1193C190.455 76.5142 190.714 75.925 190.974 75.3278C191.265 74.659 191.549 73.9902 191.841 73.3294C192.101 72.7402 192.368 72.151 192.628 71.5618C192.92 70.9169 193.211 70.272 193.503 69.6351C193.771 69.0538 194.038 68.4806 194.314 67.9073C194.606 67.2783 194.906 66.6573 195.206 66.0442C195.482 65.4789 195.757 64.9136 196.033 64.3563C196.333 63.7512 196.633 63.1461 196.933 62.5489C197.209 61.9996 197.493 61.4502 197.768 60.9088C198.076 60.3196 198.376 59.7304 198.685 59.1492C198.968 58.6157 199.252 58.0823 199.536 57.5568C199.844 56.9835 200.16 56.4183 200.468 55.853C200.752 55.3354 201.036 54.8179 201.328 54.3083C201.644 53.751 201.96 53.2016 202.285 52.6523C202.576 52.1586 202.86 51.657 203.152 51.1713C203.477 50.622 203.809 50.0885 204.133 49.5471C204.417 49.0773 204.709 48.5996 204.993 48.1299C205.333 47.5885 205.666 47.063 206.006 46.5295C206.29 46.0837 206.574 45.6378 206.858 45.1919C207.214 44.6505 207.571 44.1171 207.928 43.5836C208.204 43.1776 208.471 42.7635 208.747 42.3575C209.144 41.7763 209.542 41.2189 209.947 40.6536C210.19 40.3113 210.425 39.9689 210.669 39.6345C211.285 38.7826 211.909 37.9466 212.525 37.1265C212.679 36.9274 212.833 36.7364 212.988 36.5373C213.506 35.8605 214.033 35.1838 214.561 34.5309C214.812 34.2204 215.063 33.9258 215.315 33.6232C215.728 33.1216 216.134 32.62 216.547 32.1344C216.823 31.8079 217.107 31.4894 217.39 31.171C217.78 30.7251 218.169 30.2792 218.558 29.8493C218.85 29.5228 219.15 29.2123 219.442 28.8939C219.823 28.4798 220.204 28.0738 220.585 27.6757C220.885 27.3652 221.193 27.0626 221.493 26.7521C221.874 26.3699 222.255 25.9877 222.636 25.6135C222.944 25.311 223.253 25.0244 223.569 24.7298C223.95 24.3715 224.323 24.0132 224.704 23.6708C225.02 23.3842 225.336 23.1055 225.645 22.8269C226.026 22.4925 226.407 22.1581 226.788 21.8316C227.104 21.5609 227.42 21.2982 227.736 21.0434C228.118 20.7329 228.507 20.4224 228.888 20.1198C229.204 19.873 229.528 19.6262 229.845 19.3793V19.3634ZM31.5081 117.924C41.3758 101.132 64.3547 92.4141 96.8689 92.4141C109.575 92.4141 123.748 93.7517 139.162 96.4508C139.089 96.6658 139.024 96.8887 138.951 97.1037C138.343 98.9509 137.735 100.814 137.151 102.701C137.143 102.733 137.135 102.765 137.118 102.797C136.518 104.707 135.943 106.65 135.367 108.601C135.262 108.967 135.148 109.325 135.043 109.692C134.491 111.586 133.956 113.489 133.429 115.408C133.332 115.774 133.226 116.149 133.129 116.515C132.959 117.152 132.78 117.781 132.61 118.426C88.5498 109.492 52.5977 110.91 29.3188 122.327C29.9594 120.806 30.681 119.341 31.5081 117.924ZM26.3512 134.366C38.6596 125.767 56.9194 121.412 79.8253 121.412C94.8337 121.412 111.829 123.275 130.421 127.033C130.283 127.598 130.153 128.179 130.016 128.752C129.886 129.278 129.756 129.795 129.634 130.329C129.497 130.91 129.367 131.507 129.237 132.096C128.921 133.474 128.605 134.859 128.297 136.253C128.151 136.913 127.997 137.566 127.851 138.235C127.737 138.753 127.632 139.286 127.526 139.812C127.234 141.165 126.959 142.527 126.683 143.896C126.521 144.692 126.351 145.48 126.197 146.285C126.107 146.73 126.026 147.184 125.937 147.63C125.678 148.976 125.426 150.337 125.167 151.691C124.997 152.614 124.818 153.53 124.648 154.461C124.583 154.828 124.518 155.194 124.453 155.552C124.21 156.914 123.983 158.283 123.748 159.653C123.569 160.688 123.391 161.723 123.221 162.766C123.172 163.044 123.132 163.315 123.083 163.586C122.856 164.995 122.645 166.412 122.426 167.83C122.264 168.888 122.094 169.947 121.94 171.014C121.899 171.269 121.859 171.524 121.826 171.779C121.786 172.081 121.745 172.384 121.705 172.686C121.526 173.928 121.356 175.186 121.186 176.436C121.064 177.328 120.934 178.22 120.821 179.12C120.78 179.422 120.74 179.733 120.707 180.035C120.594 180.943 120.48 181.858 120.375 182.774C120.188 184.287 119.994 185.8 119.815 187.328C119.45 187.591 119.086 187.862 118.721 188.125C118.186 188.515 117.642 188.913 117.107 189.303C116.458 189.781 115.818 190.25 115.177 190.728C114.667 191.102 114.156 191.484 113.653 191.859C113.499 191.978 113.337 192.09 113.183 192.209C112.672 192.591 112.169 192.973 111.666 193.348C111.139 193.746 110.612 194.144 110.085 194.542C109.453 195.02 108.829 195.497 108.204 195.983C107.831 196.27 107.45 196.556 107.077 196.843C106.988 196.914 106.907 196.978 106.818 197.05C106.753 197.098 106.696 197.145 106.631 197.193C106.015 197.671 105.399 198.149 104.783 198.626C104.264 199.032 103.745 199.438 103.226 199.844C102.618 200.322 102.01 200.808 101.401 201.286C101.353 201.325 101.296 201.365 101.247 201.405C101.045 201.564 100.842 201.724 100.639 201.891C100.38 202.098 100.12 202.305 99.8608 202.512C99.2608 202.989 98.6608 203.475 98.0608 203.953C97.55 204.367 97.031 204.781 96.5202 205.195C96.0581 205.569 95.604 205.943 95.1499 206.31C94.8986 206.517 94.6472 206.724 94.3959 206.931C94.0067 207.249 93.6256 207.56 93.2445 207.878C92.6607 208.364 92.0769 208.841 91.5012 209.327C91.0066 209.741 90.5039 210.155 90.0093 210.569C89.7093 210.816 89.4174 211.071 89.1174 211.318C88.8741 211.525 88.639 211.724 88.3957 211.931C88.3633 211.963 88.3228 211.986 88.2903 212.018C87.7957 212.44 87.3011 212.854 86.8065 213.276C86.2389 213.762 85.6714 214.248 85.1119 214.733C84.6254 215.147 84.1389 215.569 83.6605 215.983C83.5064 216.119 83.3524 216.254 83.1983 216.381C83.0524 216.509 82.9145 216.636 82.7686 216.764C82.501 216.994 82.2334 217.233 81.9659 217.464C81.4956 217.878 81.0172 218.292 80.5469 218.706C79.9793 219.208 79.4199 219.709 78.8523 220.211C78.4063 220.609 77.9523 221.015 77.5063 221.413C77.4739 221.445 77.4415 221.469 77.409 221.501C76.8495 222.003 76.2982 222.512 75.7387 223.014C75.3171 223.396 74.8874 223.778 74.4738 224.168C73.8414 224.749 73.217 225.331 72.5927 225.904C72.5035 225.991 72.4062 226.071 72.317 226.159C72.2035 226.262 72.0819 226.366 71.9684 226.477C40.1191 191.285 24.0404 158.785 26.3755 134.342L26.3512 134.366ZM115.964 261.534C115.964 261.637 115.964 261.741 115.964 261.844C115.964 262.481 115.98 263.118 115.988 263.755C116.004 265.077 116.021 266.398 116.045 267.712C116.045 267.887 116.045 268.062 116.045 268.237C111.123 264.177 106.347 260.084 101.766 255.992C101.847 255.92 101.928 255.849 102.01 255.769C102.228 255.578 102.439 255.387 102.658 255.196C102.885 254.997 103.112 254.798 103.339 254.599C104.288 253.755 105.245 252.919 106.218 252.075C106.696 251.661 107.175 251.239 107.661 250.825C108.602 250.013 109.558 249.201 110.507 248.388C110.856 248.086 111.212 247.791 111.561 247.489C111.748 247.329 111.934 247.178 112.121 247.019C113.199 246.111 114.277 245.212 115.364 244.312C115.591 244.129 115.81 243.938 116.037 243.755C116.037 243.93 116.037 244.105 116.037 244.28C116.013 245.602 115.996 246.923 115.98 248.245C115.98 248.882 115.964 249.519 115.956 250.156C115.94 252.107 115.931 254.057 115.931 256.008C115.931 257.855 115.931 259.702 115.956 261.549L115.964 261.534ZM116.41 280.029C116.483 281.94 116.572 283.859 116.661 285.762C116.694 286.383 116.718 287.004 116.75 287.625C116.88 290.173 117.026 292.712 117.188 295.244C117.204 295.523 117.229 295.794 117.245 296.072C117.399 298.397 117.561 300.714 117.74 303.031C117.788 303.628 117.829 304.225 117.877 304.823C118.08 307.315 118.291 309.799 118.518 312.267C118.526 312.386 118.534 312.506 118.55 312.625C103.923 301.678 90.3336 290.38 78.0253 278.922C78.828 278.086 79.6307 277.242 80.4415 276.406C80.5794 276.263 80.7253 276.12 80.8631 275.976C81.5929 275.22 82.3389 274.472 83.0767 273.715C83.3848 273.405 83.6929 273.094 84.0011 272.792C84.593 272.203 85.1849 271.605 85.7768 271.016C86.1254 270.674 86.4741 270.331 86.8227 269.989C87.3903 269.432 87.966 268.866 88.5417 268.309C88.8985 267.959 89.2552 267.616 89.612 267.266C90.2039 266.693 90.7958 266.128 91.3958 265.554C91.7363 265.228 92.0769 264.901 92.4174 264.575C93.0904 263.938 93.7715 263.293 94.4607 262.656C94.6796 262.449 94.8986 262.25 95.1175 262.043C101.847 268.07 108.991 274.105 116.394 280.021L116.41 280.029ZM14.4402 146.953C15.2672 145.544 16.1996 144.191 17.2213 142.893C18.8024 168.395 35.5298 199.677 65.4331 232.672C65.2385 232.863 65.052 233.046 64.8574 233.237C64.2088 233.866 63.5682 234.495 62.9357 235.124C62.6033 235.45 62.2709 235.777 61.9465 236.111C61.3546 236.7 60.7627 237.289 60.1708 237.887C59.8384 238.221 59.5059 238.555 59.1735 238.89C58.5654 239.503 57.9654 240.116 57.3654 240.737C57.0735 241.032 56.7816 241.334 56.4978 241.629C55.6869 242.465 54.8842 243.309 54.0815 244.145C54.0166 244.216 53.9518 244.28 53.8869 244.352C53.0274 245.251 52.1842 246.159 51.349 247.059C51.0815 247.345 50.822 247.624 50.5625 247.911C50.149 248.357 49.7355 248.802 49.322 249.248C13.4266 207.432 0.712839 170.314 14.4402 146.953ZM25.1836 338.414C25.0215 338.788 24.8593 339.162 24.6971 339.537C24.389 340.261 24.1052 340.986 23.8133 341.702C23.6998 341.997 23.5782 342.291 23.4647 342.578C23.0755 343.581 22.6944 344.584 22.3457 345.58C22.289 345.747 22.2322 345.914 22.1754 346.081C21.8835 346.901 21.6079 347.721 21.3403 348.542C21.2268 348.892 21.1214 349.242 21.0079 349.6C20.8133 350.229 20.6187 350.858 20.4322 351.479C20.3187 351.87 20.2132 352.26 20.0997 352.65C19.9376 353.231 19.7835 353.812 19.6294 354.386C19.524 354.784 19.4267 355.182 19.3294 355.58C19.1916 356.145 19.0619 356.71 18.9321 357.276C18.8429 357.666 18.7538 358.056 18.6727 358.446C18.551 359.027 18.4375 359.609 18.3321 360.182C18.2673 360.54 18.1943 360.898 18.1294 361.257C18.0078 361.941 17.9105 362.626 17.8132 363.303C17.7808 363.542 17.7321 363.789 17.7078 364.027C17.5862 364.927 17.4808 365.827 17.3997 366.719C17.3672 367.013 17.351 367.308 17.3267 367.602C17.2862 368.104 17.2375 368.598 17.2051 369.091C16.1915 367.793 15.2672 366.432 14.4402 365.031C0.291209 340.954 14.2212 302.267 52.6707 258.898C59.3762 251.334 66.8358 243.651 74.8306 236.047C76.3225 234.63 77.8469 233.213 79.3793 231.804C79.6226 231.581 79.8658 231.35 80.1172 231.127C81.5929 229.773 83.0848 228.42 84.6011 227.066C84.8849 226.82 85.1605 226.565 85.4443 226.318C86.9849 224.948 88.5417 223.579 90.1228 222.21C90.2769 222.074 90.4309 221.939 90.5931 221.811C92.1337 220.482 93.6904 219.152 95.2716 217.83C95.4662 217.671 95.6526 217.504 95.8472 217.345C97.4527 215.999 99.0743 214.662 100.712 213.316C101.028 213.061 101.345 212.799 101.661 212.544C103.283 211.222 104.92 209.908 106.566 208.603C106.85 208.38 107.134 208.157 107.418 207.926C109.072 206.612 110.75 205.306 112.437 204.009C112.534 203.937 112.623 203.865 112.721 203.794C114.44 202.472 116.183 201.15 117.934 199.837C118.145 199.677 118.348 199.526 118.559 199.367C118.55 199.486 118.534 199.614 118.526 199.733C118.307 202.066 118.104 204.415 117.918 206.771C117.869 207.376 117.821 207.99 117.772 208.595C117.626 210.513 117.48 212.44 117.35 214.375C117.31 214.964 117.269 215.545 117.229 216.135C117.075 218.507 116.937 220.896 116.807 223.276C116.783 223.802 116.758 224.319 116.726 224.845C116.629 226.82 116.54 228.794 116.458 230.769C116.442 231.167 116.418 231.557 116.402 231.955C116.061 232.226 115.721 232.504 115.38 232.775C115.121 232.982 114.853 233.197 114.594 233.404C114.383 233.571 114.18 233.738 113.977 233.906C113.353 234.415 112.729 234.925 112.104 235.434C111.634 235.817 111.164 236.199 110.702 236.589C110.077 237.098 109.461 237.608 108.845 238.125C108.383 238.508 107.92 238.89 107.466 239.272C106.842 239.797 106.226 240.315 105.61 240.84C105.172 241.215 104.726 241.589 104.288 241.955C103.656 242.497 103.023 243.038 102.391 243.579C102.058 243.858 101.726 244.145 101.401 244.423C101.337 244.479 101.272 244.543 101.199 244.599C101.182 244.614 101.166 244.63 101.15 244.646C100.485 245.22 99.8365 245.793 99.1797 246.366C98.8068 246.692 98.4338 247.019 98.0689 247.337C97.3473 247.974 96.6337 248.611 95.9202 249.248C95.6283 249.511 95.3283 249.774 95.0283 250.037C94.0229 250.936 93.0256 251.836 92.0445 252.736C92.0445 252.736 92.0363 252.736 92.0282 252.744L88.4768 255.984L88.493 256C87.593 256.844 86.693 257.68 85.8011 258.524C79.6631 264.344 73.8171 270.244 68.3602 276.112L65.4007 279.297L65.4169 279.313C65.3358 279.4 65.2628 279.488 65.1817 279.575C64.8493 279.949 64.5169 280.316 64.1844 280.682C63.479 281.462 62.7817 282.25 62.0925 283.031C61.7114 283.469 61.3384 283.899 60.9573 284.329C60.333 285.045 59.7087 285.77 59.0924 286.486C58.7113 286.94 58.3221 287.386 57.9492 287.84C57.3491 288.548 56.7572 289.257 56.1653 289.966C55.9464 290.228 55.7275 290.491 55.5086 290.746C55.3626 290.921 55.2248 291.104 55.0788 291.279C54.4707 292.02 53.8707 292.76 53.2788 293.493C52.9545 293.891 52.6382 294.289 52.322 294.687C51.6328 295.555 50.9598 296.415 50.2949 297.275C50.0922 297.537 49.8733 297.808 49.6706 298.071C48.7949 299.201 47.9436 300.332 47.1003 301.463C46.9462 301.67 46.8003 301.869 46.6543 302.076C45.9813 302.991 45.3084 303.907 44.6516 304.815C44.384 305.181 44.1327 305.547 43.8651 305.921C43.338 306.67 42.811 307.41 42.2921 308.159C42.0083 308.565 41.7326 308.979 41.4488 309.385C40.9704 310.093 40.492 310.794 40.0218 311.495C39.7461 311.909 39.4704 312.323 39.2028 312.737C38.7407 313.445 38.2866 314.146 37.8325 314.847C37.5812 315.245 37.3217 315.643 37.0785 316.033C36.6001 316.789 36.1379 317.538 35.6838 318.286C35.4811 318.621 35.2703 318.955 35.0676 319.289C34.4514 320.309 33.8595 321.32 33.2757 322.331C33.2432 322.395 33.2027 322.458 33.1703 322.514C32.5459 323.597 31.9459 324.672 31.3621 325.739C31.2 326.033 31.0459 326.32 30.8918 326.614C30.4783 327.379 30.0648 328.151 29.6756 328.907C29.481 329.29 29.2864 329.664 29.0999 330.038C28.7594 330.715 28.4188 331.392 28.0864 332.06C27.8918 332.466 27.6972 332.864 27.5026 333.263C27.1945 333.915 26.8864 334.56 26.5864 335.205C26.3999 335.603 26.2215 336.009 26.035 336.408C25.7431 337.068 25.4512 337.721 25.1755 338.374L25.1836 338.414ZM26.3188 377.364C26.2863 376.974 26.262 376.568 26.2377 376.169C26.2134 375.763 26.1809 375.349 26.1647 374.935C26.1485 374.529 26.1404 374.123 26.1404 373.717C26.1404 373.303 26.1242 372.881 26.1323 372.467C26.1323 372.053 26.1485 371.631 26.1647 371.217C26.1809 370.795 26.189 370.373 26.2134 369.943C26.2377 369.521 26.2701 369.091 26.3026 368.669C26.335 368.239 26.3674 367.809 26.408 367.371C26.4485 366.942 26.4972 366.504 26.5539 366.074C26.6026 365.636 26.6593 365.198 26.7161 364.752C26.7728 364.314 26.8458 363.868 26.9188 363.43C26.9918 362.984 27.0647 362.539 27.1377 362.093C27.2188 361.647 27.308 361.193 27.3972 360.747C27.4864 360.293 27.5756 359.84 27.681 359.386C27.7783 358.932 27.8837 358.47 27.9972 358.008C28.1026 357.546 28.2161 357.093 28.3377 356.631C28.4594 356.169 28.581 355.699 28.7107 355.238C28.8405 354.768 28.9702 354.306 29.108 353.836C29.2459 353.366 29.3837 352.897 29.5297 352.419C29.6756 351.949 29.8297 351.472 29.9837 350.994C30.1378 350.516 30.2999 350.038 30.4621 349.561C30.6243 349.083 30.7945 348.597 30.9729 348.12C31.1513 347.634 31.3297 347.148 31.5081 346.663C31.6946 346.177 31.8811 345.691 32.0757 345.205C32.2703 344.712 32.4649 344.226 32.6676 343.733C32.8703 343.239 33.0811 342.745 33.2919 342.252C33.5027 341.758 33.7216 341.256 33.9406 340.763C34.1595 340.269 34.3865 339.767 34.6135 339.266C34.8406 338.764 35.0757 338.263 35.319 337.753C35.5541 337.252 35.8055 336.742 36.0487 336.24C36.3001 335.731 36.5433 335.221 36.8028 334.712C37.0622 334.202 37.3217 333.685 37.5893 333.175C37.8569 332.665 38.1244 332.148 38.4001 331.63C38.6758 331.113 38.9596 330.595 39.2434 330.078C39.5272 329.56 39.8109 329.043 40.1028 328.517C40.3947 327.992 40.7029 327.466 41.0029 326.949C41.3029 326.423 41.6029 325.906 41.9191 325.38C42.2353 324.847 42.5515 324.321 42.8759 323.788C43.1921 323.262 43.5083 322.737 43.8408 322.203C44.1732 321.67 44.5137 321.129 44.8543 320.595C45.1867 320.062 45.5273 319.536 45.8678 319.003C46.2165 318.461 46.5814 317.92 46.9381 317.371C47.2868 316.837 47.6435 316.304 48.0003 315.77C48.3652 315.221 48.7463 314.671 49.1274 314.122C49.5003 313.581 49.8652 313.047 50.2463 312.506C50.6355 311.956 51.0328 311.399 51.4301 310.842C51.8112 310.3 52.2004 309.767 52.5896 309.226C53.0031 308.66 53.4247 308.095 53.8464 307.53C54.2437 306.996 54.6329 306.455 55.0383 305.921C55.468 305.348 55.914 304.767 56.3599 304.194C56.7735 303.66 57.1708 303.127 57.5924 302.585C58.0465 301.996 58.5167 301.407 58.987 300.826C59.4086 300.292 59.8222 299.767 60.2519 299.233C60.7384 298.636 61.233 298.031 61.7276 297.426C62.1574 296.9 62.579 296.383 63.0168 295.857C63.5277 295.236 64.0628 294.615 64.5817 293.994C65.0115 293.485 65.4412 292.967 65.8791 292.458C66.4385 291.805 67.0142 291.152 67.5818 290.491C68.0034 290.005 68.4169 289.528 68.8467 289.042C69.4872 288.31 70.1521 287.577 70.8089 286.845C71.1819 286.43 71.5386 286.024 71.9116 285.61C71.9359 285.587 71.9603 285.563 71.9846 285.531C86.3768 298.907 102.455 312.06 119.864 324.704C120.115 326.885 120.375 329.067 120.65 331.224C120.772 332.18 120.91 333.119 121.032 334.067C121.275 335.914 121.518 337.761 121.786 339.592C121.948 340.707 122.118 341.814 122.288 342.92C122.532 344.569 122.783 346.217 123.042 347.849C123.229 349.019 123.423 350.174 123.618 351.336C123.878 352.897 124.137 354.457 124.413 356.002C124.624 357.188 124.842 358.359 125.053 359.537C125.329 361.042 125.613 362.547 125.897 364.043C126.124 365.222 126.359 366.4 126.602 367.571C126.902 369.044 127.202 370.509 127.51 371.958C127.761 373.128 128.013 374.29 128.264 375.445C128.58 376.886 128.905 378.319 129.237 379.752C129.505 380.899 129.764 382.037 130.04 383.168C130.186 383.773 130.324 384.386 130.47 384.991C83.5146 394.482 46.7922 391.91 26.408 377.698C26.3999 377.603 26.3836 377.499 26.3755 377.404L26.3188 377.364ZM31.5081 394.068C30.6729 392.651 29.9513 391.178 29.3107 389.657C42.4705 396.114 59.66 399.386 80.0929 399.386C95.8148 399.386 113.45 397.452 132.61 393.566C132.683 393.845 132.764 394.124 132.837 394.402C133.056 395.222 133.275 396.042 133.502 396.863C133.632 397.34 133.77 397.826 133.899 398.304C134.11 399.068 134.329 399.832 134.548 400.589C134.686 401.066 134.824 401.544 134.953 402.014C135.189 402.818 135.424 403.614 135.659 404.41C135.781 404.816 135.902 405.23 136.024 405.637C136.364 406.767 136.705 407.882 137.054 408.996C137.078 409.06 137.094 409.132 137.118 409.196C137.491 410.382 137.864 411.568 138.245 412.739C138.351 413.073 138.464 413.407 138.57 413.742C138.764 414.347 138.959 414.952 139.162 415.549C84.3335 425.167 45.2435 417.428 31.5081 394.068ZM223.853 503.114C195.547 503.114 168.4 471.92 149.37 417.532C146.046 408.033 142.989 397.85 140.297 387.26C135.108 366.91 131.167 344.863 128.572 321.75C126.975 307.458 125.888 292.633 125.361 277.704C125.11 270.586 124.98 263.285 124.98 256C124.98 248.715 125.11 241.414 125.361 234.296C125.897 219.359 126.975 204.542 128.572 190.25C129.221 184.47 129.951 178.761 130.77 173.124C131.28 169.597 131.832 166.118 132.407 162.654C134.589 149.509 137.216 136.818 140.297 124.724C140.702 123.123 141.124 121.539 141.545 119.954C143.921 111.093 146.54 102.534 149.37 94.4604C168.4 40.0644 195.547 8.86959 223.853 8.86959C225.507 8.86959 227.169 8.98106 228.823 9.19603C228.369 9.49062 227.923 9.80114 227.469 10.1117C227.258 10.255 227.047 10.3903 226.836 10.5336C226.082 11.0591 225.336 11.6005 224.59 12.1658C224.445 12.2773 224.299 12.3967 224.153 12.5082C223.553 12.97 222.961 13.4318 222.361 13.9175C222.101 14.1245 221.842 14.3474 221.582 14.5624C221.104 14.9605 220.617 15.3665 220.139 15.7885C219.855 16.0353 219.571 16.2901 219.288 16.5449C218.834 16.951 218.388 17.357 217.934 17.779C217.642 18.0497 217.358 18.3204 217.074 18.5911C216.628 19.0211 216.174 19.459 215.728 19.9048C215.452 20.1835 215.177 20.4542 214.901 20.7329C214.423 21.2185 213.952 21.7122 213.482 22.2058C213.239 22.4606 212.996 22.7154 212.76 22.9702C212.152 23.6231 211.552 24.2919 210.952 24.9766C210.855 25.088 210.75 25.1995 210.652 25.311C209.947 26.1151 209.25 26.9352 208.56 27.7712C208.366 28.0101 208.171 28.2569 207.968 28.4958C207.474 29.1009 206.979 29.7139 206.493 30.335C206.241 30.6534 205.99 30.9878 205.739 31.3063C205.301 31.8716 204.871 32.4369 204.441 33.0181C204.174 33.3764 203.914 33.7347 203.647 34.093C203.233 34.6663 202.82 35.2395 202.406 35.8207C202.147 36.1949 201.879 36.5612 201.62 36.9354C201.198 37.5405 200.785 38.1536 200.363 38.7746C200.12 39.1409 199.876 39.4991 199.625 39.8654C199.163 40.566 198.701 41.2747 198.247 41.9912C198.052 42.2938 197.866 42.5804 197.671 42.883C197.022 43.9101 196.382 44.9531 195.741 46.012C195.676 46.1235 195.603 46.2429 195.538 46.3544C194.971 47.3018 194.411 48.2573 193.852 49.2366C193.641 49.6028 193.438 49.977 193.228 50.3433C192.814 51.0758 192.401 51.8163 191.987 52.5726C191.752 53.0026 191.517 53.4405 191.282 53.8784C190.901 54.587 190.519 55.3036 190.138 56.0202C189.895 56.4819 189.66 56.9437 189.417 57.4055C189.044 58.1301 188.671 58.8626 188.306 59.603C188.071 60.0648 187.844 60.5266 187.609 60.9964C187.228 61.7766 186.846 62.5649 186.465 63.3611C186.255 63.799 186.052 64.2289 185.841 64.6668C185.387 65.6302 184.941 66.6095 184.495 67.5888C184.365 67.8675 184.244 68.1382 184.114 68.4169C183.546 69.6828 182.979 70.9647 182.419 72.2625C182.273 72.6128 182.127 72.9631 181.973 73.3135C181.568 74.2689 181.163 75.2323 180.757 76.2116C180.554 76.7053 180.352 77.1989 180.157 77.6925C179.817 78.5445 179.468 79.3964 179.135 80.2563C178.925 80.7977 178.706 81.3471 178.495 81.8964C178.171 82.7324 177.854 83.5684 177.53 84.4124C177.319 84.9777 177.108 85.543 176.898 86.1163C176.581 86.9761 176.265 87.844 175.949 88.7118C175.746 89.2692 175.543 89.8345 175.341 90.3998C175.008 91.3393 174.676 92.2947 174.352 93.2501C174.181 93.7517 174.003 94.2454 173.833 94.755C173.8 94.8585 173.76 94.962 173.727 95.0655H173.703L172.389 99.1261C172.389 99.142 172.381 99.1579 172.373 99.1659L170.962 103.521H170.995C168.724 110.854 166.616 118.497 164.695 126.34H164.67L163.584 130.974C163.584 130.974 163.584 130.982 163.584 130.99L162.651 135.01H162.668C160.705 143.792 158.962 152.877 157.446 162.105H157.438L157.121 164.079C157.121 164.087 157.121 164.095 157.121 164.111C156.838 165.879 156.562 167.654 156.294 169.446C154.965 178.371 153.838 187.48 152.93 196.684C152.638 199.661 152.37 202.647 152.127 205.641H152.119L151.948 207.759C150.692 223.483 150.059 239.71 150.059 255.976C150.059 258.006 150.067 260.045 150.092 262.075C150.116 264.209 150.148 266.343 150.189 268.476C150.432 280.531 151.016 292.505 151.948 304.194C151.948 304.225 151.948 304.265 151.957 304.297L152.119 306.311C153.124 318.557 154.519 330.699 156.286 342.506C156.554 344.29 156.83 346.065 157.113 347.841C157.113 347.881 157.13 347.921 157.13 347.968L157.43 349.847H157.438C157.559 350.596 157.681 351.344 157.803 352.093C159.23 360.556 160.851 368.884 162.651 376.942H162.635L163.568 380.963C163.568 380.963 163.568 380.97 163.568 380.978L164.654 385.62H164.678C166.592 393.431 168.7 401.066 170.979 408.431H170.946L172.357 412.794L173.687 416.903H173.711C173.752 417.006 173.784 417.11 173.825 417.221C173.987 417.699 174.157 418.177 174.319 418.654C174.652 419.634 174.992 420.605 175.333 421.568C175.527 422.126 175.73 422.675 175.925 423.224C176.241 424.1 176.557 424.976 176.881 425.844C177.092 426.409 177.303 426.974 177.514 427.532C177.83 428.384 178.154 429.22 178.479 430.056C178.69 430.605 178.9 431.147 179.119 431.688C179.46 432.548 179.8 433.4 180.141 434.244C180.344 434.745 180.546 435.239 180.749 435.733C181.154 436.704 181.56 437.667 181.965 438.631C182.111 438.981 182.257 439.331 182.411 439.674C182.971 440.972 183.53 442.253 184.106 443.519C184.236 443.798 184.357 444.077 184.487 444.355C184.933 445.335 185.379 446.314 185.833 447.277C186.036 447.715 186.246 448.145 186.449 448.575C186.83 449.371 187.211 450.168 187.592 450.948C187.819 451.418 188.055 451.871 188.282 452.333C188.655 453.074 189.028 453.814 189.401 454.539C189.636 455.001 189.871 455.454 190.106 455.908C190.487 456.641 190.876 457.365 191.257 458.082C191.484 458.512 191.72 458.934 191.947 459.356C192.368 460.12 192.79 460.876 193.211 461.633C193.414 461.983 193.609 462.341 193.811 462.692C194.395 463.711 194.979 464.714 195.571 465.701C195.611 465.773 195.652 465.845 195.701 465.916C196.341 466.983 196.99 468.034 197.639 469.069C197.817 469.348 197.987 469.619 198.166 469.889C198.636 470.63 199.114 471.37 199.593 472.095C199.82 472.445 200.055 472.787 200.29 473.13C200.72 473.767 201.149 474.404 201.587 475.033C201.839 475.391 202.082 475.749 202.333 476.1C202.763 476.705 203.193 477.302 203.622 477.891C203.874 478.233 204.125 478.576 204.377 478.918C204.822 479.515 205.268 480.104 205.723 480.686C205.958 480.988 206.193 481.299 206.428 481.601C206.939 482.254 207.458 482.899 207.977 483.536C208.147 483.751 208.317 483.966 208.496 484.173C209.193 485.017 209.898 485.853 210.612 486.665C210.677 486.745 210.75 486.816 210.814 486.888C211.447 487.613 212.087 488.313 212.728 489.006C212.947 489.245 213.174 489.476 213.401 489.715C213.888 490.232 214.382 490.75 214.877 491.251C215.136 491.522 215.404 491.777 215.663 492.039C216.125 492.501 216.588 492.955 217.05 493.393C217.325 493.656 217.601 493.918 217.877 494.173C218.339 494.603 218.801 495.025 219.271 495.447C219.547 495.694 219.815 495.933 220.09 496.172C220.585 496.602 221.08 497.024 221.574 497.43C221.817 497.637 222.061 497.844 222.312 498.043C222.928 498.544 223.553 499.03 224.177 499.508C224.299 499.603 224.42 499.699 224.542 499.794C225.288 500.36 226.042 500.909 226.804 501.434C227.007 501.578 227.209 501.705 227.412 501.841C227.866 502.151 228.32 502.47 228.782 502.764C227.128 502.979 225.466 503.083 223.812 503.083L223.853 503.114ZM251.023 493.361C250.675 493.616 250.334 493.863 249.986 494.11C249.613 494.372 249.232 494.619 248.859 494.874C248.51 495.105 248.161 495.344 247.813 495.567C247.44 495.805 247.058 496.036 246.677 496.267C246.329 496.482 245.972 496.697 245.623 496.896C245.242 497.111 244.861 497.318 244.48 497.525C244.123 497.716 243.767 497.915 243.418 498.098C243.037 498.297 242.656 498.481 242.275 498.664C241.918 498.839 241.561 499.014 241.204 499.173C241.115 499.213 241.026 499.253 240.937 499.293C240.839 499.253 240.75 499.213 240.653 499.165C240.337 499.022 240.021 498.863 239.704 498.712C239.291 498.512 238.877 498.313 238.464 498.098C238.139 497.931 237.823 497.756 237.499 497.581C237.093 497.358 236.688 497.143 236.291 496.912C235.966 496.729 235.642 496.53 235.318 496.339C234.92 496.1 234.523 495.861 234.126 495.606C233.801 495.399 233.477 495.184 233.153 494.977C232.764 494.715 232.366 494.452 231.977 494.181C231.653 493.958 231.328 493.727 231.012 493.496C230.623 493.218 230.234 492.931 229.853 492.637C229.528 492.39 229.204 492.143 228.888 491.896C228.507 491.594 228.126 491.291 227.745 490.973C227.42 490.71 227.104 490.447 226.788 490.176C226.407 489.858 226.026 489.523 225.653 489.189C225.336 488.91 225.02 488.632 224.704 488.345C224.323 488.003 223.95 487.644 223.569 487.294C223.253 487 222.944 486.705 222.628 486.402C222.247 486.036 221.874 485.654 221.501 485.272C221.193 484.961 220.885 484.659 220.585 484.34C220.204 483.942 219.823 483.536 219.442 483.13C219.142 482.812 218.85 482.493 218.55 482.167C218.161 481.737 217.771 481.291 217.382 480.845C217.098 480.526 216.815 480.208 216.539 479.882C216.125 479.396 215.712 478.894 215.298 478.393C215.047 478.09 214.796 477.796 214.552 477.485C214.017 476.816 213.482 476.132 212.955 475.447C212.833 475.288 212.712 475.136 212.59 474.977C211.942 474.133 211.301 473.265 210.669 472.381C210.433 472.055 210.19 471.705 209.955 471.37C209.55 470.805 209.152 470.24 208.747 469.658C208.471 469.26 208.204 468.854 207.936 468.448C207.571 467.915 207.214 467.381 206.858 466.832C206.574 466.402 206.29 465.956 206.014 465.51C205.674 464.977 205.333 464.443 204.993 463.894C204.709 463.432 204.425 462.962 204.133 462.493C203.801 461.951 203.468 461.41 203.144 460.853C202.86 460.367 202.576 459.881 202.293 459.388C201.968 458.83 201.644 458.273 201.328 457.708C201.044 457.206 200.76 456.696 200.485 456.187C200.168 455.614 199.852 455.04 199.536 454.459C199.252 453.934 198.976 453.408 198.693 452.883C198.385 452.293 198.076 451.704 197.768 451.115C197.493 450.574 197.217 450.032 196.941 449.483C196.633 448.878 196.333 448.273 196.033 447.66C195.757 447.102 195.49 446.553 195.214 445.988C194.914 445.367 194.614 444.738 194.314 444.101C194.047 443.535 193.779 442.962 193.511 442.389C193.211 441.744 192.92 441.091 192.628 440.438C192.368 439.857 192.109 439.284 191.849 438.694C191.557 438.026 191.265 437.349 190.974 436.672C190.722 436.083 190.471 435.502 190.219 434.905C189.928 434.212 189.636 433.503 189.344 432.803C189.101 432.213 188.857 431.624 188.614 431.019C188.322 430.295 188.03 429.554 187.738 428.814C187.503 428.225 187.268 427.635 187.041 427.038C186.741 426.266 186.449 425.486 186.157 424.705C185.938 424.124 185.719 423.543 185.5 422.962C185.192 422.126 184.884 421.274 184.584 420.43C184.39 419.88 184.187 419.339 183.992 418.79C183.644 417.794 183.295 416.783 182.946 415.772C182.8 415.358 182.654 414.952 182.517 414.53C182.508 414.506 182.5 414.482 182.492 414.458C182.622 414.419 182.76 414.379 182.89 414.339C185.2 413.662 187.511 412.969 189.838 412.245C189.846 412.245 189.855 412.245 189.863 412.237C192.182 411.52 194.501 410.772 196.836 410.008C197.055 409.936 197.266 409.864 197.484 409.793C199.706 409.06 201.936 408.312 204.166 407.539C204.49 407.428 204.814 407.317 205.147 407.205C207.328 406.449 209.509 405.676 211.698 404.88C212.071 404.745 212.436 404.609 212.809 404.474C214.99 403.678 217.171 402.866 219.361 402.038C219.725 401.894 220.098 401.759 220.471 401.616C222.677 400.772 224.89 399.912 227.112 399.028C227.436 398.901 227.753 398.773 228.077 398.646C230.355 397.738 232.642 396.815 234.929 395.867C235.139 395.78 235.358 395.684 235.569 395.597C237.369 394.848 239.169 394.092 240.969 393.319C260.834 401.823 280.473 408.917 299.438 414.45C299.43 414.482 299.414 414.522 299.406 414.554C299.251 415 299.097 415.438 298.943 415.876C298.595 416.879 298.254 417.89 297.905 418.877C297.711 419.427 297.508 419.96 297.314 420.509C296.997 421.377 296.689 422.253 296.373 423.113C296.154 423.694 295.935 424.26 295.724 424.841C295.416 425.645 295.116 426.457 294.808 427.253C294.581 427.842 294.346 428.424 294.119 429.005C293.819 429.769 293.519 430.541 293.211 431.29C292.976 431.879 292.732 432.452 292.489 433.034C292.189 433.766 291.881 434.507 291.573 435.231C291.33 435.812 291.078 436.378 290.827 436.951C290.519 437.659 290.211 438.376 289.903 439.069C289.651 439.634 289.392 440.199 289.14 440.757C288.832 441.441 288.524 442.134 288.208 442.811C287.949 443.368 287.689 443.918 287.421 444.467C287.105 445.128 286.797 445.789 286.481 446.441C286.213 446.991 285.946 447.532 285.678 448.074C285.362 448.711 285.046 449.348 284.73 449.977C284.454 450.518 284.178 451.043 283.902 451.577C283.586 452.19 283.262 452.803 282.946 453.408C282.662 453.934 282.386 454.451 282.102 454.969C281.778 455.558 281.454 456.155 281.129 456.736C280.846 457.246 280.562 457.747 280.27 458.249C279.946 458.822 279.613 459.396 279.289 459.961C278.997 460.454 278.705 460.94 278.413 461.426C278.081 461.975 277.756 462.532 277.424 463.074C277.132 463.552 276.832 464.029 276.532 464.499C276.2 465.033 275.867 465.558 275.527 466.084C275.227 466.545 274.927 467.007 274.627 467.461C274.286 467.971 273.954 468.48 273.613 468.982C273.305 469.428 273.005 469.873 272.697 470.311C272.356 470.805 272.016 471.291 271.675 471.768C271.367 472.198 271.059 472.628 270.743 473.05C270.402 473.52 270.054 473.982 269.705 474.444C269.389 474.858 269.072 475.272 268.764 475.678C268.416 476.124 268.067 476.569 267.718 477.007C267.402 477.405 267.086 477.796 266.762 478.186C266.413 478.616 266.056 479.038 265.708 479.46C265.383 479.842 265.067 480.216 264.743 480.59C264.386 480.996 264.037 481.402 263.68 481.8C263.356 482.167 263.032 482.525 262.699 482.875C262.343 483.265 261.986 483.64 261.629 484.022C261.297 484.364 260.972 484.707 260.64 485.049C260.283 485.415 259.918 485.773 259.553 486.132C259.221 486.458 258.888 486.785 258.556 487.103C258.191 487.445 257.826 487.788 257.461 488.122C257.121 488.433 256.788 488.735 256.448 489.038C256.083 489.364 255.718 489.675 255.345 489.993C255.005 490.288 254.664 490.574 254.323 490.853C253.959 491.156 253.586 491.45 253.213 491.745C252.872 492.016 252.523 492.286 252.183 492.549C251.81 492.828 251.437 493.106 251.064 493.377L251.023 493.361ZM340.523 391.21C340.044 393.025 339.541 394.816 339.047 396.6C337.012 403.845 334.814 410.86 332.487 417.532L332.471 417.571C313.441 471.936 286.303 503.107 258.005 503.107C256.351 503.107 254.696 502.995 253.034 502.788C253.488 502.493 253.934 502.183 254.388 501.872C254.599 501.729 254.81 501.594 255.013 501.45C255.767 500.925 256.513 500.376 257.267 499.818C257.405 499.715 257.542 499.603 257.68 499.5C258.288 499.03 258.897 498.56 259.505 498.067C259.756 497.86 260.007 497.645 260.259 497.438C260.745 497.032 261.24 496.618 261.726 496.188C262.002 495.949 262.278 495.702 262.553 495.455C263.016 495.041 263.478 494.619 263.94 494.189C264.216 493.926 264.499 493.664 264.775 493.401C265.237 492.963 265.699 492.509 266.153 492.055C266.421 491.793 266.681 491.53 266.948 491.259C267.443 490.758 267.929 490.248 268.416 489.723C268.643 489.484 268.862 489.253 269.089 489.014C269.737 488.321 270.378 487.605 271.018 486.88C271.083 486.808 271.148 486.745 271.205 486.673C271.918 485.861 272.624 485.033 273.321 484.181C273.491 483.974 273.662 483.759 273.84 483.544C274.359 482.907 274.878 482.262 275.397 481.601C275.632 481.307 275.859 480.996 276.094 480.694C276.548 480.104 277.002 479.515 277.448 478.91C277.7 478.576 277.943 478.233 278.194 477.899C278.624 477.302 279.062 476.705 279.492 476.1C279.735 475.749 279.986 475.399 280.229 475.049C280.667 474.412 281.105 473.775 281.543 473.122C281.77 472.787 281.997 472.453 282.224 472.111C282.711 471.37 283.197 470.622 283.675 469.865C283.846 469.603 284.008 469.348 284.178 469.085C284.835 468.042 285.484 466.991 286.124 465.916C286.148 465.869 286.181 465.821 286.205 465.781C286.813 464.77 287.413 463.735 288.013 462.692C288.2 462.357 288.394 462.023 288.581 461.681C289.019 460.908 289.449 460.136 289.878 459.348C290.097 458.942 290.324 458.528 290.543 458.122C290.94 457.389 291.338 456.649 291.727 455.9C291.954 455.462 292.181 455.024 292.408 454.579C292.789 453.83 293.178 453.074 293.551 452.317C293.77 451.871 293.997 451.434 294.216 450.98C294.614 450.176 295.003 449.355 295.392 448.543C295.587 448.129 295.789 447.723 295.984 447.309C296.454 446.306 296.924 445.287 297.387 444.268C297.492 444.029 297.605 443.798 297.711 443.551C298.287 442.277 298.854 440.988 299.414 439.682C299.551 439.371 299.681 439.053 299.811 438.734C300.233 437.739 300.654 436.744 301.068 435.741C301.262 435.263 301.457 434.785 301.652 434.299C302 433.432 302.349 432.564 302.697 431.688C302.908 431.155 303.111 430.621 303.322 430.088C303.654 429.236 303.979 428.384 304.303 427.524C304.514 426.975 304.716 426.417 304.919 425.868C305.243 424.992 305.568 424.1 305.884 423.209C306.079 422.667 306.273 422.134 306.468 421.592C306.816 420.621 307.149 419.634 307.489 418.646C307.652 418.177 307.814 417.715 307.976 417.245C308.017 417.134 308.049 417.03 308.089 416.919H308.114L309.444 412.818C312.233 404.187 314.811 395.063 317.122 385.636H317.146L318.233 380.994C318.533 379.705 318.833 378.407 319.125 377.101C319.222 376.655 319.319 376.201 319.417 375.755C319.603 374.896 319.798 374.036 319.984 373.168C320.098 372.626 320.211 372.077 320.325 371.536C320.487 370.755 320.649 369.983 320.811 369.195C320.933 368.606 321.047 368.016 321.168 367.419C321.314 366.679 321.468 365.93 321.614 365.19C321.736 364.577 321.857 363.956 321.971 363.335C322.109 362.61 322.255 361.878 322.384 361.145C322.506 360.516 322.62 359.879 322.733 359.25C322.863 358.526 323.001 357.801 323.13 357.069C323.244 356.432 323.357 355.787 323.471 355.15C323.601 354.417 323.722 353.693 323.852 352.96C323.957 352.323 324.063 351.694 324.176 351.058C324.241 350.659 324.314 350.269 324.379 349.871C324.72 349.656 325.06 349.441 325.401 349.226C327.103 348.167 328.798 347.108 330.485 346.041C330.93 345.763 331.376 345.484 331.814 345.198C333.866 343.892 335.909 342.57 337.936 341.24C338.406 340.938 338.868 340.627 339.331 340.325C341.025 339.21 342.712 338.088 344.382 336.965C344.844 336.654 345.306 336.344 345.769 336.033C347.796 334.664 349.798 333.294 351.793 331.909C351.874 331.853 351.955 331.798 352.036 331.742C351.761 333.836 351.485 335.922 351.185 337.992C351.136 338.31 351.096 338.629 351.055 338.947C350.674 341.567 350.277 344.162 349.863 346.75C349.725 347.586 349.588 348.414 349.45 349.242C349.158 351.002 348.866 352.761 348.558 354.505C348.388 355.484 348.209 356.448 348.031 357.419C347.739 359.011 347.439 360.604 347.139 362.188C346.944 363.184 346.75 364.179 346.555 365.174C346.239 366.742 345.923 368.303 345.59 369.848C345.388 370.803 345.193 371.751 344.982 372.698C344.617 374.362 344.244 376.01 343.863 377.658C343.677 378.454 343.498 379.267 343.312 380.055C342.736 382.475 342.152 384.88 341.552 387.26C341.212 388.582 340.871 389.904 340.523 391.21ZM450.341 394.068C436.614 417.428 397.524 425.175 342.688 415.549C342.752 415.342 342.817 415.135 342.89 414.928C343.506 413.057 344.123 411.17 344.715 409.251C344.715 409.243 344.715 409.227 344.723 409.219C345.323 407.293 345.906 405.342 346.482 403.383C346.588 403.025 346.693 402.675 346.798 402.316C347.35 400.421 347.893 398.503 348.42 396.576C348.517 396.21 348.623 395.843 348.72 395.477C348.89 394.84 349.069 394.203 349.239 393.558C368.407 397.444 386.034 399.378 401.764 399.378C422.197 399.378 439.387 396.106 452.547 389.649C451.906 391.17 451.176 392.651 450.349 394.06L450.341 394.068ZM455.498 377.642C435.114 391.862 398.391 394.434 351.428 384.943C351.566 384.378 351.696 383.805 351.826 383.24C351.955 382.706 352.085 382.181 352.215 381.647C352.353 381.05 352.482 380.445 352.62 379.84C352.936 378.478 353.244 377.117 353.544 375.747C353.69 375.079 353.844 374.418 353.99 373.749C354.104 373.216 354.217 372.666 354.331 372.125C354.615 370.795 354.89 369.458 355.158 368.12C355.32 367.316 355.49 366.512 355.653 365.699C355.742 365.238 355.831 364.768 355.92 364.306C356.18 362.992 356.423 361.663 356.666 360.341C356.845 359.402 357.023 358.47 357.193 357.523C357.258 357.14 357.331 356.758 357.396 356.376C357.631 355.054 357.85 353.725 358.077 352.395C358.255 351.336 358.442 350.285 358.612 349.218C358.661 348.924 358.709 348.637 358.758 348.342C358.977 346.981 359.18 345.612 359.391 344.242C359.561 343.135 359.731 342.037 359.893 340.93C359.926 340.691 359.966 340.46 359.999 340.221C360.064 339.752 360.128 339.282 360.193 338.812C360.339 337.761 360.485 336.71 360.623 335.659C360.753 334.712 360.891 333.78 361.012 332.833C361.053 332.546 361.085 332.259 361.126 331.973C361.255 330.993 361.369 329.998 361.491 329.019C361.669 327.562 361.855 326.113 362.026 324.648C362.342 324.417 362.658 324.186 362.974 323.955C363.591 323.501 364.207 323.055 364.823 322.602C365.399 322.18 365.974 321.75 366.55 321.328C367.11 320.914 367.669 320.5 368.22 320.086C368.366 319.982 368.512 319.871 368.65 319.767C369.129 319.409 369.607 319.051 370.077 318.692C370.645 318.262 371.221 317.832 371.788 317.402C372.388 316.949 372.98 316.495 373.572 316.041C373.969 315.738 374.375 315.428 374.772 315.125C374.837 315.078 374.902 315.022 374.967 314.974C375.048 314.91 375.137 314.847 375.218 314.775C375.826 314.305 376.426 313.835 377.034 313.366C377.561 312.952 378.088 312.546 378.615 312.132C379.231 311.654 379.84 311.168 380.448 310.691C380.505 310.643 380.569 310.595 380.626 310.547C380.813 310.396 381.007 310.245 381.194 310.093C381.453 309.886 381.713 309.679 381.972 309.472C382.588 308.979 383.205 308.485 383.813 307.999C384.307 307.601 384.802 307.203 385.288 306.805C385.759 306.423 386.229 306.033 386.707 305.651C386.951 305.452 387.194 305.253 387.445 305.053C387.826 304.743 388.199 304.432 388.572 304.13C389.197 303.612 389.813 303.103 390.437 302.585C390.899 302.203 391.361 301.821 391.816 301.439C392.132 301.176 392.44 300.913 392.756 300.65C392.983 300.459 393.202 300.276 393.421 300.085C393.51 300.014 393.591 299.942 393.672 299.87C394.118 299.488 394.564 299.114 395.01 298.732C395.635 298.198 396.251 297.673 396.867 297.139C397.305 296.765 397.743 296.391 398.172 296.017C398.343 295.873 398.505 295.73 398.675 295.579C398.797 295.467 398.927 295.364 399.048 295.252C399.389 294.958 399.721 294.663 400.062 294.369C400.467 294.01 400.881 293.652 401.278 293.302C401.927 292.728 402.559 292.163 403.2 291.59C403.581 291.247 403.97 290.905 404.343 290.563C404.343 290.563 404.359 290.555 404.359 290.547C404.375 290.531 404.4 290.507 404.424 290.491C405.056 289.918 405.689 289.345 406.313 288.779C406.662 288.461 407.019 288.142 407.359 287.824C408.073 287.171 408.77 286.526 409.475 285.873L409.556 285.801C409.662 285.698 409.775 285.602 409.889 285.499C441.746 320.699 457.833 353.207 455.482 377.65L455.498 377.642ZM467.409 365.039C466.582 366.448 465.641 367.801 464.628 369.099C463.047 343.597 446.319 312.315 416.408 279.32C416.627 279.113 416.838 278.899 417.057 278.691C417.657 278.102 418.265 277.521 418.857 276.932C419.221 276.574 419.586 276.215 419.951 275.849C420.511 275.3 421.062 274.742 421.613 274.185C421.978 273.819 422.335 273.461 422.692 273.094C423.259 272.513 423.827 271.94 424.395 271.359C424.719 271.024 425.043 270.698 425.359 270.363C426.089 269.607 426.819 268.851 427.541 268.094C427.678 267.943 427.824 267.8 427.97 267.648C428.814 266.765 429.641 265.873 430.468 264.989C430.776 264.655 431.084 264.32 431.392 263.994C431.773 263.58 432.162 263.166 432.543 262.752C468.439 304.56 481.153 341.678 467.425 365.039H467.409Z" fill="url(#paint0_linear_583_12)"/>
<defs>
<linearGradient id="paint0_linear_583_12" x1="62.5778" y1="512" x2="477.867" y2="1.15847e-05" gradientUnits="userSpaceOnUse">
<stop stop-color="#6A00D4"/>
<stop offset="1" stop-color="#001FFF"/>
</linearGradient>
</defs>
</svg>
